<?xml version="1.0" encoding="UTF-8" standalone="no"?>
<!--
  - GSApp3 (https://github.com/libf-de/GSApp3)
  - Copyright (C) 2023. Fabian Schillig
  -
  - This program is free software: you can redistribute it and/or modify
  - it under the terms of the GNU General Public License as published by
  - the Free Software Foundation, either version 3 of the License, or
  - (at your option) any later version.
  -
  - This program is distributed in the hope that it will be useful,
  - but WITHOUT ANY WARRANTY; without even the implied warranty of
  - MERCHANTABILITY or FITNESS FOR A PARTICULAR PURPOSE.  See the
  - GNU General Public License for more details.
  -
  - You should have received a copy of the GNU General Public License
  - along with this program.  If not, see <http://www.gnu.org/licenses/>.
  -->

<!-- Created with Inkscape (http://www.inkscape.org/) -->

<svg
   sodipodi:docname="logo_longshadow.svg"
   inkscape:version="1.1.2 (0a00cf5339, 2022-02-04)"
   id="svg8"
   version="1.1"
   viewBox="0 0 220 220"
   height="200mm"
   width="200mm"
   xmlns:inkscape="http://www.inkscape.org/namespaces/inkscape"
   xmlns:sodipodi="http://sodipodi.sourceforge.net/DTD/sodipodi-0.dtd"
   xmlns="http://www.w3.org/2000/svg"
   xmlns:svg="http://www.w3.org/2000/svg"
   xmlns:rdf="http://www.w3.org/1999/02/22-rdf-syntax-ns#"
   xmlns:cc="http://creativecommons.org/ns#"
   xmlns:dc="http://purl.org/dc/elements/1.1/">
  <defs
     id="defs16" />
  <sodipodi:namedview
     id="base"
     pagecolor="#ffffff"
     bordercolor="#666666"
     borderopacity="1.0"
     inkscape:pageopacity="0.0"
     inkscape:pageshadow="2"
     inkscape:zoom="0.65229918"
     inkscape:cx="328.07032"
     inkscape:cy="393.99099"
     inkscape:document-units="mm"
     inkscape:current-layer="layer2"
     showgrid="false"
     showguides="false"
     inkscape:window-width="1920"
     inkscape:window-height="1006"
     inkscape:window-x="0"
     inkscape:window-y="0"
     inkscape:window-maximized="1"
     inkscape:pagecheckerboard="0" />
  <metadata
     id="metadata5">
    <rdf:RDF>
      <cc:Work
         rdf:about="">
        <dc:format>image/svg+xml</dc:format>
        <dc:type
           rdf:resource="http://purl.org/dc/dcmitype/StillImage" />
      </cc:Work>
    </rdf:RDF>
  </metadata>
  <g
     inkscape:groupmode="layer"
     id="masterlayer"
     style="filter:url(#filter4346)"
     inkscape:label="Master Layer">
    <g
       inkscape:groupmode="layer"
       id="layer4"
       inkscape:label="Ebene 4">
      <rect
         style="fill:#808080;fill-opacity:1;stroke-width:0.328676;filter:url(#filter4346)"
         id="rect3857-3-5-9"
         width="120"
         height="120"
         x="81.746269"
         y="81.746239"
         rx="12"
         ry="12" />
      <rect
         style="fill:#8c8c8c;fill-opacity:1;stroke-width:0.328676;filter:url(#filter4346)"
         id="rect3857-3-5"
         width="120"
         height="120"
         x="81.164177"
         y="81.164154"
         rx="12"
         ry="12" />
      <rect
         style="fill:#a6a6a6;stroke-width:0.328676;filter:url(#filter4346);fill-opacity:1"
         id="rect3857-3"
         width="120"
         height="120"
         x="80.582085"
         y="80.582069"
         rx="12"
         ry="12" />
    </g>
    <g
       inkscape:groupmode="layer"
       id="layer2"
       inkscape:label="Ebene 2"
       style="display:inline">
      <rect
         style="opacity:1;fill:#bfbfbf;stroke-width:0.328676"
         id="rect3857"
         width="120"
         height="120"
         x="80"
         y="80"
         rx="12"
         ry="12" />
      <path
         id="path17713"
         style="font-weight:bold;font-size:120px;font-family:Ubuntu;text-anchor:middle;fill:#000000;stroke-width:0.999999;filter:url(#filter4346);fill-opacity:0.15000001"
         d="m 143.56011,94.91967 c -0.59,0 -1.17296,0.01 -1.74796,0.0284 -1.725,0.0562 -3.38215,0.19678 -4.97215,0.42179 -0.795,0.11249 -1.57334,0.24606 -2.33459,0.40074 -0.5075,0.10313 -1.00761,0.21578 -1.50011,0.33766 -0.73875,0.18281 -1.46019,0.38664 -2.16519,0.61164 -0.235,0.07 -0.46799,0.14195 -0.69862,0.21601 -0.69187,0.22219 -1.36433,0.4626 -2.01682,0.72135 -0.2175,0.0863 -0.43263,0.17458 -0.64575,0.26489 -0.42625,0.18063 -0.84353,0.36929 -1.25228,0.56617 -0.40875,0.19688 -0.80873,0.40193 -1.19998,0.61505 -1.36937,0.7459 -2.63195,1.59152 -3.78695,2.53639 -2.64,2.15999 -4.67983,4.80008 -6.11983,7.92008 -1.44,3.04 -2.16008,6.48004 -2.16008,10.32004 0,3.84 0.68014,7.11971 2.04014,9.83971 1.02139,1.98271 2.26828,3.7622 3.74091,5.3388 8.7e-4,8.7e-4 0.002,0.002 0.003,0.003 0.0268,0.0287 0.0555,0.0556 0.0824,0.0841 0.21766,0.23057 0.43825,0.45863 0.66565,0.68043 l 5.8e-4,5.8e-4 c 8.7e-4,8.7e-4 0.001,10e-4 0.002,0.002 l 5.8e-4,5.8e-4 c 0,0 5.8e-4,5.8e-4 5.8e-4,5.8e-4 0.004,0.003 0.007,0.007 0.0108,0.0103 0.005,0.005 0.0111,0.0101 0.0165,0.0153 8.8e-4,8.8e-4 10e-4,0.001 0.002,0.002 0.005,0.004 0.01,0.009 0.0142,0.0131 8.8e-4,8.7e-4 10e-4,0.001 0.002,0.002 8.7e-4,8.7e-4 0.002,0.002 0.003,0.003 0.0349,0.034 0.0718,0.0662 0.10687,0.10005 0.006,0.006 0.0126,0.0116 0.0188,0.0176 0.002,0.002 0.005,0.004 0.007,0.007 0.002,0.002 0.003,0.003 0.005,0.005 0.006,0.006 0.0119,0.0109 0.0176,0.0165 0.0111,0.0109 0.023,0.021 0.0341,0.0318 0.007,0.007 0.0137,0.0128 0.0205,0.0193 0.007,0.006 0.0134,0.0124 0.0199,0.0188 0.008,0.008 0.0161,0.0146 0.0239,0.0222 2.9e-4,2.9e-4 8.8e-4,8.7e-4 0.001,0.001 0.003,0.003 0.007,0.006 0.0102,0.01 2.9e-4,3e-4 8.7e-4,8.8e-4 0.001,0.001 0.0337,0.0329 0.0695,0.0639 0.10346,0.0966 0.008,0.008 0.0169,0.0154 0.025,0.0233 2.9e-4,2.9e-4 8.8e-4,8.7e-4 0.001,0.001 0.004,0.004 0.008,0.007 0.0114,0.0108 2.9e-4,2.9e-4 8.7e-4,8.7e-4 0.001,0.001 0.0265,0.0259 0.0546,0.0504 0.0813,0.0762 l 5.8e-4,5.9e-4 c 0.002,0.002 0.004,0.004 0.006,0.006 0.0122,0.012 0.0252,0.0233 0.0375,0.0352 0.009,0.008 0.0176,0.0162 0.0262,0.0245 8.7e-4,8.7e-4 0.001,0.002 0.002,0.003 0.0106,0.0104 0.0223,0.0198 0.033,0.0301 0.002,0.002 0.003,0.003 0.005,0.005 0.007,0.007 0.0142,0.0127 0.021,0.0193 0.008,0.008 0.0169,0.0154 0.025,0.0233 0.0257,0.0251 0.0527,0.0489 0.0785,0.0739 0.009,0.009 0.0184,0.0169 0.0273,0.0256 0.002,0.002 0.004,0.004 0.006,0.006 0.0113,0.011 0.0233,0.0214 0.0347,0.0324 0.0115,0.0112 0.0237,0.0218 0.0352,0.033 0.01,0.01 0.0203,0.0183 0.0301,0.0279 2.9e-4,2.9e-4 8.7e-4,8.7e-4 10e-4,0.001 0.0115,0.0112 0.0232,0.0223 0.0347,0.0335 0.0142,0.0139 0.029,0.0271 0.0432,0.0409 0.0141,0.0137 0.0291,0.0266 0.0432,0.0404 0.0129,0.0126 0.0268,0.0244 0.0398,0.0369 0.0131,0.0128 0.0272,0.0247 0.0404,0.0375 0.0133,0.013 0.0276,0.0251 0.0409,0.0381 0.0135,0.0132 0.028,0.0255 0.0415,0.0386 l 5.9e-4,5.8e-4 c 0.002,0.002 0.004,0.003 0.006,0.005 0.006,0.006 0.0118,0.0109 0.0176,0.0165 0.003,0.003 0.007,0.006 0.0102,0.01 5.9e-4,5.8e-4 0.001,0.001 0.002,0.002 5.8e-4,5.8e-4 5.8e-4,0.001 10e-4,0.002 0.0113,0.011 0.0234,0.0214 0.0347,0.0324 0.0183,0.0179 0.0374,0.0351 0.0557,0.0529 0.0153,0.015 0.0318,0.0288 0.0472,0.0438 0.01,0.01 0.0203,0.0183 0.0301,0.0279 5.9e-4,5.9e-4 10e-4,0.002 0.002,0.002 8.7e-4,8.8e-4 0.002,0.002 0.003,0.003 0.0172,0.0169 0.0356,0.0327 0.0529,0.0495 0.0166,0.0162 0.034,0.0316 0.0506,0.0478 0.0215,0.0209 0.0444,0.0405 0.0659,0.0614 0.006,0.006 0.0123,0.0113 0.0182,0.0171 l 5.9e-4,5.8e-4 c 0.0232,0.0227 0.0477,0.0444 0.0711,0.0671 0.0107,0.0105 0.0222,0.0203 0.033,0.0307 0.0162,0.0158 0.0332,0.0308 0.0495,0.0466 0.0191,0.0186 0.0394,0.036 0.0585,0.0546 0.0163,0.0159 0.0337,0.0308 0.05,0.0466 0.0111,0.0109 0.023,0.021 0.0341,0.0318 8.7e-4,8.7e-4 0.002,0.002 0.003,0.003 0.0396,0.0387 0.0812,0.0758 0.12107,0.11425 0.0194,0.0189 0.0397,0.0369 0.0591,0.0557 0.0145,0.0142 0.0303,0.0273 0.0449,0.0415 10e-4,0.001 0.003,0.003 0.004,0.004 0.0191,0.0186 0.0388,0.0366 0.058,0.0551 0.0259,0.0252 0.053,0.0493 0.079,0.0745 0.009,0.009 0.0192,0.0172 0.0284,0.0261 0.0233,0.0227 0.0477,0.0444 0.0711,0.0671 0.017,0.0166 0.0352,0.0323 0.0523,0.0489 0.0195,0.0191 0.0401,0.0373 0.0597,0.0563 0.0224,0.0219 0.0463,0.0424 0.0688,0.0642 0.0194,0.019 0.0402,0.0368 0.0597,0.0557 8.7e-4,8.7e-4 0.001,0.001 0.002,0.002 8.8e-4,8.7e-4 0.001,10e-4 0.002,0.002 0.0145,0.0141 0.0298,0.0274 0.0443,0.0415 0.0223,0.0218 0.0458,0.0425 0.0682,0.0642 0.0243,0.0237 0.0496,0.0463 0.0739,0.0699 0.0211,0.0205 0.0437,0.0398 0.0648,0.0602 0.0174,0.0169 0.036,0.0326 0.0534,0.0495 0.001,0.001 0.003,0.003 0.004,0.004 5.8e-4,5.8e-4 10e-4,0.001 0.002,0.002 0.0217,0.0211 0.0442,0.0415 0.0659,0.0625 0.0415,0.0405 0.0855,0.0786 0.12733,0.1188 0.024,0.0235 0.0492,0.046 0.0733,0.0694 0.0224,0.0219 0.0457,0.043 0.0682,0.0648 0.0256,0.025 0.0528,0.0485 0.0785,0.0733 0.0231,0.0225 0.0479,0.0435 0.0711,0.0659 0.0198,0.0194 0.0409,0.0376 0.0608,0.0568 0.001,10e-4 0.003,0.003 0.004,0.004 0.02,0.0196 0.0413,0.0379 0.0614,0.0574 0.0276,0.0269 0.0564,0.0528 0.0841,0.0796 0.0238,0.0233 0.0488,0.0456 0.0728,0.0688 0.022,0.0215 0.0455,0.0417 0.0676,0.0631 0.0283,0.0277 0.0579,0.0543 0.0864,0.0819 0.0204,0.0199 0.042,0.0387 0.0625,0.0585 0.0288,0.0282 0.0591,0.055 0.0881,0.083 0.0252,0.0246 0.052,0.0477 0.0773,0.0722 0.023,0.0224 0.0474,0.0436 0.0705,0.0659 0.0235,0.0229 0.0481,0.0448 0.0716,0.0677 0.0746,0.0729 0.1529,0.14236 0.22851,0.2143 0.003,0.003 0.007,0.006 0.0102,0.009 0.0305,0.0299 0.0625,0.0584 0.0932,0.0881 0.0246,0.024 0.0509,0.0465 0.0756,0.0705 0.0289,0.0283 0.059,0.0554 0.0881,0.0836 0.0273,0.0267 0.0561,0.0519 0.0836,0.0784 0.0275,0.0268 0.0565,0.0523 0.0841,0.079 0.0304,0.0297 0.0627,0.0575 0.0932,0.087 0.0233,0.0227 0.0483,0.0439 0.0716,0.0665 0.002,0.001 0.003,0.004 0.005,0.005 0.0305,0.0298 0.0626,0.058 0.0932,0.0875 0.0263,0.0257 0.0543,0.05 0.0807,0.0756 0.0286,0.0279 0.0589,0.0541 0.0875,0.0819 0.0309,0.0302 0.0632,0.0592 0.0944,0.0892 0.0252,0.0246 0.052,0.0477 0.0773,0.0722 0.0334,0.0326 0.0681,0.0642 0.10175,0.0966 0.0316,0.0309 0.0654,0.0597 0.0972,0.0904 0.005,0.005 0.01,0.009 0.0148,0.0142 0.0209,0.0203 0.0433,0.0394 0.0642,0.0597 8.7e-4,8.8e-4 0.001,0.002 0.002,0.003 0.0289,0.0283 0.0596,0.0549 0.0887,0.083 0.0352,0.0344 0.0725,0.067 0.108,0.10119 0.028,0.0273 0.0577,0.053 0.0858,0.0801 2.9e-4,2.9e-4 8.7e-4,8.7e-4 10e-4,0.001 0.0261,0.0255 0.0539,0.0496 0.0802,0.075 0.0369,0.0361 0.0753,0.071 0.11255,0.10686 0.0313,0.0306 0.0646,0.0594 0.0961,0.0898 0.0275,0.0268 0.0565,0.0523 0.0841,0.079 0.0375,0.0367 0.077,0.0716 0.11482,0.108 0.0263,0.0256 0.0543,0.0496 0.0807,0.075 0.001,0.001 0.002,0.002 0.003,0.003 0.035,0.0343 0.0716,0.0671 0.10686,0.10118 0.0326,0.0318 0.0673,0.0616 0.10005,0.0932 0.0326,0.0318 0.0667,0.0622 0.0995,0.0938 0.0331,0.0324 0.0684,0.0628 0.10175,0.0949 0.0314,0.0307 0.0645,0.0599 0.0961,0.0904 0.0373,0.0364 0.0762,0.0713 0.11369,0.10744 0.0315,0.0308 0.0649,0.0598 0.0966,0.0904 0.0323,0.0315 0.0665,0.0613 0.0989,0.0927 0.0394,0.0386 0.0808,0.0754 0.12051,0.11368 0.031,0.0303 0.0643,0.0586 0.0955,0.0887 0.001,8.7e-4 0.002,0.002 0.003,0.003 0.0358,0.035 0.0736,0.0681 0.10971,0.10288 0.0306,0.0298 0.0631,0.0579 0.0938,0.0875 0.0412,0.0402 0.0841,0.0788 0.12562,0.11881 0.0335,0.0327 0.0692,0.0635 0.10289,0.0961 0.0312,0.0305 0.0641,0.0595 0.0955,0.0898 0.0418,0.0409 0.0857,0.0799 0.1279,0.12051 0.0343,0.0335 0.0707,0.0651 0.10516,0.0983 0.0321,0.0313 0.0661,0.0609 0.0983,0.0921 0.0427,0.0418 0.0871,0.0819 0.13017,0.12336 0.0349,0.034 0.0718,0.0662 0.10687,0.10004 0.037,0.0361 0.0759,0.0704 0.11312,0.1063 0.0394,0.0385 0.0809,0.0749 0.12051,0.11312 0.0355,0.0347 0.0734,0.0673 0.10914,0.10175 0.0376,0.0368 0.0769,0.072 0.11482,0.10857 0.0401,0.0392 0.0824,0.0765 0.12278,0.1154 0.0382,0.0373 0.0786,0.0726 0.1171,0.10971 0.0393,0.0384 0.081,0.0745 0.12051,0.11255 0.0362,0.0353 0.0744,0.0689 0.11085,0.10402 0.043,0.042 0.088,0.0822 0.13131,0.12392 0.0329,0.0322 0.068,0.0624 0.10118,0.0944 0.0865,0.0846 0.17701,0.16565 0.26489,0.24898 0.0327,0.032 0.0677,0.062 0.10062,0.0938 0.0439,0.043 0.0899,0.0841 0.13415,0.12676 0.0429,0.0419 0.0881,0.0818 0.13131,0.12336 0.0362,0.0353 0.0744,0.0689 0.11085,0.10402 0.045,0.044 0.0922,0.086 0.13756,0.1296 0.0433,0.0423 0.0888,0.0825 0.13245,0.12449 0.0394,0.0384 0.0814,0.0744 0.12107,0.11256 2.9e-4,2.9e-4 8.8e-4,8.7e-4 0.001,0.001 0.0393,0.0384 0.0809,0.075 0.12051,0.11312 0.0457,0.0447 0.0937,0.0875 0.13983,0.13188 0.0363,0.0354 0.0749,0.0688 0.11142,0.10402 0.046,0.045 0.094,0.0883 0.1404,0.13302 0.0426,0.0416 0.0878,0.0809 0.13074,0.12221 0.0428,0.0418 0.0876,0.0818 0.13074,0.12335 0.0451,0.0441 0.0927,0.0859 0.13813,0.12961 0.0436,0.0425 0.0897,0.0828 0.13359,0.12506 0.0374,0.0366 0.0771,0.0711 0.11482,0.10743 0.0516,0.0505 0.10539,0.0989 0.15746,0.14893 0.04,0.0391 0.0824,0.076 0.12279,0.11483 0.0482,0.0472 0.0991,0.0919 0.14779,0.1387 0.0385,0.0376 0.0795,0.0729 0.11824,0.11027 0.0489,0.0478 0.10014,0.0935 0.14949,0.14098 0.0429,0.0419 0.0881,0.0817 0.13132,0.12335 0.0511,0.05 0.10471,0.0977 0.15632,0.14723 0.0377,0.0368 0.078,0.0714 0.11596,0.108 0.0518,0.0507 0.10576,0.0993 0.15803,0.1495 0.046,0.0449 0.0946,0.0873 0.14097,0.13188 0.042,0.041 0.0867,0.0797 0.12904,0.12051 0.0505,0.0494 0.1036,0.0965 0.15461,0.14552 0.0469,0.0458 0.0965,0.0893 0.14382,0.13472 0.0468,0.0457 0.096,0.0894 0.14324,0.13472 0.0412,0.0402 0.0847,0.0783 0.1262,0.11824 0.0531,0.052 0.10838,0.10198 0.162,0.15347 0.0515,0.0503 0.10602,0.0979 0.15803,0.1478 0.0399,0.039 0.0825,0.0755 0.12278,0.11425 5.8e-4,5.9e-4 0.001,0.001 0.002,0.002 0.0521,0.051 0.10651,0.10009 0.15916,0.15064 0.048,0.0469 0.0988,0.0911 0.14723,0.13756 0.0509,0.0498 0.10434,0.0973 0.15575,0.14666 0.0464,0.0454 0.0958,0.088 0.14268,0.13302 0.0491,0.048 0.1005,0.094 0.15007,0.14153 0.0496,0.0485 0.10173,0.0946 0.15177,0.14268 0.0516,0.0504 0.10594,0.0984 0.15803,0.14837 0.0475,0.0464 0.0976,0.0904 0.14552,0.13642 0.05,0.0488 0.10247,0.0954 0.15291,0.14382 0.0507,0.0496 0.10398,0.0969 0.15518,0.14609 0.0504,0.0493 0.10371,0.0961 0.15462,0.14495 0.0524,0.0513 0.10733,0.10039 0.1603,0.15121 0.053,0.0518 0.109,0.10099 0.16257,0.15234 0.0513,0.0501 0.10564,0.0976 0.15746,0.14722 0.0454,0.0443 0.0935,0.0862 0.13927,0.13018 0.0578,0.0566 0.11837,0.11056 0.17679,0.16655 0.0524,0.0511 0.10742,0.1 0.1603,0.15064 0.0458,0.0447 0.0942,0.087 0.1404,0.13131 0.0585,0.0572 0.1194,0.11218 0.17849,0.16882 0.0509,0.0497 0.10491,0.0968 0.15632,0.14609 0.0547,0.0534 0.1119,0.10454 0.16712,0.15746 0.0493,0.0482 0.10144,0.0938 0.15121,0.14154 0.0595,0.0582 0.12172,0.11404 0.1819,0.17167 0.0516,0.0504 0.10647,0.0978 0.15859,0.1478 0.0538,0.0526 0.1105,0.10253 0.16485,0.15461 0.0522,0.051 0.10705,0.0995 0.15974,0.15007 0.0543,0.0531 0.11116,0.10375 0.16598,0.15632 0.0566,0.0554 0.11611,0.10827 0.17337,0.16315 0.057,0.0557 0.11694,0.10858 0.17451,0.16371 0.0552,0.0539 0.11311,0.10523 0.16883,0.15859 0.0517,0.0505 0.1064,0.0983 0.1586,0.14836 0.0612,0.0599 0.12563,0.11694 0.18758,0.17622 0.0526,0.0513 0.10777,0.10034 0.16087,0.1512 0.0553,0.0541 0.11349,0.10561 0.1694,0.15917 0.0584,0.0571 0.12003,0.11118 0.17905,0.16769 0.0544,0.0531 0.11162,0.10368 0.16656,0.15632 0.0589,0.0577 0.12059,0.1129 0.18019,0.16996 0.0549,0.0536 0.11284,0.10436 0.16826,0.15746 0.0613,0.0599 0.12563,0.11695 0.18759,0.17622 0.0559,0.0546 0.11461,0.1068 0.1711,0.16087 0.0537,0.0525 0.11061,0.10206 0.16485,0.15404 0.0637,0.0624 0.12992,0.1225 0.1944,0.18418 0.0582,0.0569 0.11964,0.11083 0.17849,0.16712 0.0553,0.054 0.11358,0.10514 0.1694,0.15859 0.062,0.0607 0.12712,0.11849 0.18986,0.17849 0.0609,0.0595 0.12486,0.11622 0.18645,0.17509 0.0511,0.0499 0.10526,0.0972 0.15688,0.14665 0.0675,0.0661 0.13797,0.12962 0.20635,0.19498 0.0535,0.0523 0.11021,0.10169 0.16428,0.15348 0.066,0.0646 0.13496,0.12655 0.2018,0.19043 0.0561,0.0548 0.11553,0.10659 0.17223,0.16086 0.0665,0.0651 0.13616,0.12726 0.20351,0.19157 0.0546,0.0533 0.11253,0.10353 0.16769,0.15632 0.0629,0.0615 0.12852,0.1205 0.19213,0.18133 0.0637,0.0623 0.13105,0.12142 0.19554,0.18304 0.0568,0.0555 0.11656,0.10822 0.17395,0.16314 0.0619,0.0606 0.12667,0.11858 0.18929,0.17849 0.0655,0.0641 0.1343,0.12532 0.20066,0.18872 0.062,0.0606 0.12709,0.11853 0.18985,0.1785 0.0644,0.063 0.13261,0.12248 0.19782,0.18474 0.0611,0.0597 0.12525,0.11663 0.18702,0.17565 0.0582,0.0569 0.11965,0.11081 0.17849,0.16712 0.0692,0.0677 0.1414,0.13263 0.21146,0.19952 0.0615,0.0601 0.12646,0.11731 0.18872,0.17679 0.0636,0.0622 0.13058,0.12152 0.19498,0.18304 0.0617,0.0603 0.12685,0.11766 0.18929,0.17735 0.0633,0.062 0.12973,0.12118 0.19384,0.18247 0.071,0.0694 0.14522,0.13604 0.21714,0.20464 0.0601,0.0586 0.12345,0.11422 0.18417,0.17223 0.0647,0.0633 0.1329,0.12333 0.19839,0.18588 0.065,0.0636 0.13318,0.12418 0.19895,0.18702 0.065,0.0636 0.13318,0.12418 0.19896,0.18702 0.0675,0.066 0.13802,0.12919 0.20634,0.1944 0.0627,0.0613 0.1287,0.11958 0.19213,0.1802 0.0712,0.0697 0.14559,0.13641 0.21772,0.20521 0.0621,0.0607 0.12756,0.11844 0.19043,0.17849 0.0704,0.0689 0.14465,0.1343 0.216,0.20236 0.0666,0.0651 0.1366,0.12721 0.20408,0.19157 0.0628,0.0614 0.12915,0.1195 0.1927,0.18019 0.0691,0.0676 0.14147,0.13217 0.21146,0.19896 0.0679,0.0664 0.13924,0.12989 0.20804,0.19554 0.0692,0.0677 0.14193,0.1321 0.21203,0.19895 0.0658,0.0643 0.13465,0.12575 0.20123,0.18929 0.0727,0.0711 0.14913,0.13898 0.22283,0.20919 0.0131,0.0128 0.0272,0.0247 0.0404,0.0375 -0.93029,0.51449 -2.07339,0.95795 -3.43395,1.32901 -1.68,0.4 -3.83966,0.59971 -6.47966,0.59971 -3.95926,0 -7.46849,-0.29175 -10.52809,-0.87654 -5.8e-4,-1.1e-4 -10e-4,-5.8e-4 -0.002,-5.8e-4 -0.25422,-0.0486 -0.50573,-0.0991 -0.75375,-0.15177 -8.7e-4,-1.7e-4 -0.001,-2.9e-4 -0.002,-5.8e-4 -0.74625,-0.15844 -1.46439,-0.33536 -2.15439,-0.53036 -0.84085,-0.2616 -1.64806,-0.53022 -2.42781,-0.80491 -0.0541,-0.0191 -0.11102,-0.0377 -0.16484,-0.0568 -8.8e-4,-2.6e-4 -0.001,-2.9e-4 -0.002,-5.8e-4 -0.19512,-0.0693 -0.38174,-0.14071 -0.57299,-0.21089 -0.21557,-0.0791 -0.43509,-0.15744 -0.64575,-0.23761 -0.3967,-0.15094 -0.7849,-0.30348 -1.16417,-0.45816 -8.7e-4,-2.9e-4 -0.001,-8.8e-4 -0.002,-0.001 -0.37921,-0.15467 -0.74953,-0.31112 -1.11131,-0.46953 -8.7e-4,-2.9e-4 -0.001,-8.7e-4 -0.002,-10e-4 -0.0664,-0.0291 -0.1286,-0.0589 -0.1944,-0.0881 -0.0467,-0.0207 -0.0917,-0.0417 -0.13813,-0.0625 -0.41598,-0.18636 -0.81913,-0.37585 -1.21135,-0.5673 -0.17544,-0.0856 -0.35512,-0.17028 -0.52581,-0.25694 -0.28468,-0.14451 -0.56016,-0.29092 -0.83163,-0.43827 -0.0401,-0.0218 -0.083,-0.043 -0.12278,-0.0648 -5.8e-4,-2.9e-4 -0.001,-8.7e-4 -0.002,-0.001 l -5.27968,14.88007 c 5.9e-4,2.8e-4 10e-4,2.9e-4 0.002,5.8e-4 5.8e-4,2.9e-4 0.001,8.7e-4 0.002,0.001 l -5.9e-4,0.001 c 0.001,5.8e-4 0.002,10e-4 0.003,0.002 l -5.8e-4,0.001 c 0.001,8.7e-4 0.003,0.001 0.004,0.002 l -5.9e-4,5.8e-4 c 0.001,8.7e-4 0.003,0.001 0.005,0.002 l -5.8e-4,0.001 c 0.002,8.8e-4 0.003,0.002 0.005,0.003 l -5.8e-4,0.002 c 0.002,0.001 0.005,0.002 0.007,0.003 l -5.8e-4,0.001 c 0.002,0.001 0.005,0.003 0.007,0.004 l -5.8e-4,0.002 c 0.002,0.001 0.005,0.003 0.008,0.004 l -10e-4,0.003 c 0.003,0.002 0.006,0.003 0.009,0.005 l -0.001,0.002 c 0.003,0.002 0.006,0.003 0.009,0.005 l -0.001,0.003 c 0.003,0.002 0.007,0.004 0.0102,0.006 l -10e-4,0.003 c 0.003,0.002 0.007,0.004 0.0108,0.006 l -10e-4,0.003 c 0.004,0.002 0.009,0.005 0.0125,0.007 l -0.001,0.003 c 0.004,0.002 0.009,0.005 0.0131,0.007 l -10e-4,0.003 c 0.004,0.002 0.009,0.005 0.0136,0.007 l -0.002,0.004 c 0.005,0.003 0.01,0.005 0.0142,0.008 l -10e-4,0.004 c 0.005,0.003 0.0101,0.005 0.0148,0.008 l -0.002,0.005 c 0.005,0.003 0.0113,0.006 0.0165,0.009 l -0.002,0.005 c 0.005,0.003 0.0116,0.007 0.017,0.01 l -0.002,0.005 c 0.006,0.003 0.0121,0.006 0.0176,0.01 l -0.002,0.005 c 0.006,0.003 0.0121,0.006 0.0176,0.01 l -0.002,0.006 c 0.006,0.004 0.0136,0.007 0.0199,0.0108 l -0.002,0.006 c 0.006,0.004 0.0136,0.007 0.0199,0.0108 l -0.002,0.006 c 0.006,0.004 0.014,0.008 0.0205,0.0114 l -0.002,0.006 c 0.007,0.004 0.0151,0.008 0.0222,0.0125 l -0.002,0.007 c 0.007,0.004 0.0151,0.008 0.0222,0.0125 l -0.002,0.006 c 0.007,0.004 0.0159,0.009 0.0233,0.0131 l -0.002,0.006 c 0.008,0.005 0.0171,0.009 0.025,0.0137 l -0.003,0.007 c 0.008,0.005 0.0171,0.009 0.025,0.0137 l -0.002,0.007 c 0.008,0.005 0.0179,0.009 0.0262,0.0142 l -0.003,0.008 c 0.008,0.005 0.0182,0.01 0.0267,0.0148 l -0.003,0.007 c 0.008,0.005 0.0182,0.01 0.0267,0.0148 l -0.003,0.008 c 0.009,0.005 0.0198,0.0107 0.029,0.0159 l -0.003,0.009 c 0.009,0.005 0.0202,0.0106 0.0296,0.0159 l -0.003,0.009 c 0.009,0.005 0.0201,0.0111 0.0296,0.0165 l -0.003,0.009 c 0.01,0.006 0.0209,0.0115 0.0307,0.0171 l -0.003,0.009 c 0.0101,0.006 0.0217,0.0118 0.0318,0.0176 l -0.003,0.01 c 0.0102,0.006 0.0221,0.0118 0.0324,0.0176 l -0.003,0.009 c 0.0104,0.006 0.0225,0.0122 0.033,0.0182 l -0.003,0.01 c 0.011,0.006 0.0236,0.013 0.0347,0.0193 l -0.003,0.0102 c 0.011,0.006 0.0236,0.013 0.0347,0.0193 l -0.003,0.01 c 0.0113,0.006 0.0244,0.0134 0.0358,0.0199 l -0.004,0.0108 c 0.0115,0.007 0.0249,0.0133 0.0364,0.0199 l -0.003,0.0102 c 0.0121,0.007 0.026,0.0141 0.0381,0.0211 l -0.004,0.0108 c 0.0121,0.007 0.026,0.0142 0.0381,0.0211 l -0.004,0.0108 c 0.0123,0.007 0.0263,0.0146 0.0387,0.0216 l -0.004,0.0114 c 0.0127,0.007 0.0275,0.0149 0.0404,0.0222 l -0.005,0.0119 c 0.0127,0.007 0.0275,0.0149 0.0403,0.0222 l -0.004,0.0119 c 0.0131,0.007 0.0283,0.0152 0.0415,0.0227 l -0.005,0.0125 c 0.0135,0.008 0.0291,0.0156 0.0426,0.0233 l -0.005,0.0125 c 0.0137,0.008 0.0294,0.016 0.0432,0.0239 l -0.005,0.0119 c 0.0142,0.008 0.0307,0.0163 0.0449,0.0245 l -0.005,0.0125 c 0.014,0.008 0.0302,0.0164 0.0443,0.0245 l -0.005,0.0137 c 0.0144,0.008 0.031,0.0168 0.0455,0.025 l -0.005,0.0131 c 0.0147,0.008 0.0318,0.0171 0.0466,0.0256 l -0.005,0.0136 c 0.015,0.009 0.0322,0.0176 0.0472,0.0261 l -0.005,0.0136 c 0.0153,0.009 0.0329,0.018 0.0483,0.0267 l -0.005,0.0142 c 0.0155,0.009 0.0334,0.0179 0.0489,0.0267 l -0.005,0.0142 c 0.0159,0.009 0.0341,0.0188 0.05,0.0279 l -0.005,0.0142 c 0.016,0.009 0.0345,0.0187 0.0506,0.0279 l -0.006,0.0153 c 0.0162,0.009 0.0348,0.0191 0.0512,0.0284 l -0.005,0.0148 c 0.0166,0.009 0.0356,0.0195 0.0523,0.029 l -0.005,0.0148 c 0.0167,0.01 0.0361,0.0194 0.0529,0.029 l -0.005,0.0148 c 0.0171,0.01 0.0368,0.0198 0.054,0.0296 l -0.006,0.0165 c 0.0173,0.01 0.0372,0.0202 0.0546,0.0301 l -0.006,0.0159 c 0.0176,0.0101 0.038,0.0206 0.0557,0.0307 l -0.006,0.0165 c 0.0176,0.0101 0.038,0.0206 0.0557,0.0307 l -0.006,0.0165 c 0.0182,0.0104 0.0391,0.0214 0.0574,0.0318 l -0.006,0.0159 c 0.0183,0.0105 0.0395,0.0213 0.058,0.0318 l -0.006,0.0171 c 0.0183,0.0105 0.0395,0.0213 0.058,0.0318 l -0.006,0.0182 c 0.019,0.0109 0.0411,0.0221 0.0602,0.033 l -0.006,0.0171 c 0.0191,0.0109 0.041,0.0226 0.0603,0.0335 l -0.006,0.0176 c 0.0194,0.0111 0.0419,0.0224 0.0614,0.0335 l -0.006,0.0176 c 0.0198,0.0113 0.0426,0.0234 0.0625,0.0347 l -0.006,0.0182 c 0.0197,0.0113 0.0426,0.0228 0.0625,0.0341 l -0.007,0.0187 c 0.0199,0.0114 0.043,0.0232 0.0631,0.0347 l -0.006,0.0182 c 0.0205,0.0117 0.0441,0.0241 0.0648,0.0358 l -0.007,0.0193 c 0.0209,0.0119 0.0449,0.0244 0.0659,0.0364 l -0.007,0.0188 c 0.0209,0.0119 0.0449,0.0244 0.0659,0.0364 l -0.007,0.0193 c 0.0212,0.0121 0.0457,0.0248 0.0671,0.0369 l -0.007,0.0193 c 0.0215,0.0123 0.046,0.0252 0.0676,0.0375 l -0.007,0.0193 c 0.0218,0.0125 0.0468,0.0256 0.0688,0.0381 l -0.007,0.0199 c 0.0219,0.0125 0.0472,0.0255 0.0694,0.0381 l -0.007,0.021 c 0.0223,0.0127 0.048,0.0259 0.0705,0.0387 l -0.007,0.0205 c 0.0225,0.0129 0.0484,0.0263 0.0711,0.0392 l -0.007,0.0205 c 0.023,0.0131 0.0496,0.0266 0.0728,0.0398 l -0.007,0.0205 c 0.023,0.0131 0.0496,0.0266 0.0728,0.0398 l -0.008,0.0222 c 0.0232,0.0132 0.0499,0.0271 0.0733,0.0404 l -0.007,0.0216 c 0.0235,0.0135 0.0507,0.0274 0.0745,0.0409 l -0.007,0.021 c 0.0238,0.0136 0.0511,0.0279 0.075,0.0415 l -0.008,0.0227 c 0.0241,0.0138 0.0518,0.0282 0.0762,0.0421 l -0.008,0.0216 c 0.0243,0.0139 0.0522,0.0287 0.0767,0.0426 l -0.008,0.0227 c 0.0246,0.0141 0.053,0.0285 0.0779,0.0426 l -0.008,0.0222 c 0.025,0.0143 0.0537,0.0294 0.079,0.0438 l -0.008,0.0222 c 0.0252,0.0144 0.0542,0.0294 0.0796,0.0438 l -0.009,0.0233 c 0.0255,0.0146 0.055,0.0297 0.0807,0.0443 l -0.009,0.0233 c 0.0254,0.0145 0.0545,0.0298 0.0801,0.0443 l -0.009,0.0239 c 0.0261,0.0149 0.0561,0.0305 0.0824,0.0455 l -0.009,0.0239 c 0.0262,0.015 0.0565,0.0305 0.083,0.0455 l -0.009,0.0245 c 0.0264,0.0151 0.0569,0.0309 0.0836,0.046 l -0.009,0.0239 c 0.0266,0.0152 0.0573,0.0308 0.0841,0.0461 l -0.009,0.025 c 0.027,0.0155 0.058,0.0317 0.0853,0.0472 l -0.009,0.0245 c 0.0271,0.0155 0.0584,0.0316 0.0858,0.0472 l -0.009,0.025 c 0.0276,0.0158 0.0591,0.0325 0.087,0.0483 l -0.009,0.0244 c 0.0276,0.0157 0.0591,0.0325 0.087,0.0483 l -0.009,0.0261 c 0.0282,0.0161 0.0607,0.0327 0.0892,0.0489 l -0.009,0.025 c 0.028,0.016 0.0603,0.0328 0.0887,0.0489 l -0.009,0.0261 c 0.0283,0.0162 0.0607,0.0333 0.0893,0.0495 l -0.009,0.0261 c 0.029,0.0166 0.0622,0.034 0.0915,0.0506 l -0.01,0.0267 c 0.029,0.0166 0.0622,0.034 0.0915,0.0506 l -0.009,0.0262 c 0.0293,0.0168 0.063,0.0343 0.0927,0.0512 l -0.01,0.0273 c 0.0295,0.0168 0.0634,0.0343 0.0932,0.0512 l -0.01,0.0279 c 0.0297,0.017 0.0638,0.0347 0.0938,0.0517 l -0.01,0.0273 c 0.0302,0.0172 0.065,0.035 0.0955,0.0523 l -0.01,0.0273 c 0.0305,0.0174 0.0658,0.0354 0.0966,0.0529 l -0.0102,0.0284 c 0.0302,0.0173 0.0649,0.0355 0.0955,0.0529 l -0.01,0.0279 c 0.0311,0.0178 0.0669,0.0362 0.0983,0.054 l -0.0102,0.0284 c 0.0311,0.0178 0.0669,0.0362 0.0983,0.054 l -0.0102,0.029 c 0.0313,0.0179 0.0672,0.0366 0.0989,0.0546 l -0.0102,0.029 c 0.0315,0.018 0.0676,0.0371 0.0995,0.0551 l -0.0102,0.029 c 0.032,0.0183 0.0688,0.0374 0.10118,0.0557 l -0.0102,0.0296 c 0.032,0.0183 0.0688,0.0373 0.10118,0.0557 l -0.0102,0.029 c 0.0324,0.0185 0.0696,0.0377 0.10232,0.0563 l -0.0102,0.0296 c 0.0326,0.0186 0.0699,0.0382 0.10288,0.0568 l -0.0108,0.0301 c 0.0331,0.0189 0.0711,0.0385 0.10459,0.0574 l -0.0108,0.0307 c 0.0331,0.0189 0.0711,0.0384 0.10459,0.0574 l -0.0108,0.0307 c 0.0333,0.019 0.0715,0.0389 0.10516,0.058 l -0.0108,0.0313 c 0.0339,0.0194 0.0726,0.0397 0.10687,0.0591 l -0.0108,0.0307 c 0.0338,0.0193 0.0726,0.0397 0.10687,0.0591 l -0.0108,0.0307 c 0.0342,0.0196 0.0733,0.0401 0.108,0.0597 l -0.0114,0.0324 c 0.0345,0.0197 0.0741,0.0404 0.10914,0.0602 l -0.0108,0.0307 c 0.0347,0.0198 0.0746,0.0403 0.10971,0.0602 l -0.0119,0.033 c 0.0353,0.0201 0.0757,0.0412 0.11141,0.0614 l -0.0114,0.0313 c 0.0352,0.0201 0.0757,0.0412 0.11141,0.0614 l -0.0114,0.033 c 0.0353,0.0201 0.0757,0.0412 0.11142,0.0614 l -0.0114,0.0324 c 0.0359,0.0205 0.0772,0.0419 0.11369,0.0625 l -0.0119,0.0335 c 0.0362,0.0207 0.0776,0.0423 0.11426,0.0631 l -0.0119,0.033 c 0.0363,0.0207 0.078,0.0422 0.11482,0.0631 l -0.0119,0.033 c 0.0367,0.021 0.0788,0.0426 0.11596,0.0637 l -0.0119,0.0341 c 0.0367,0.021 0.0787,0.0432 0.11596,0.0642 l -0.0119,0.0341 c 0.0369,0.0211 0.0791,0.0431 0.11653,0.0642 l -0.0119,0.0335 c 0.0376,0.0215 0.0807,0.0438 0.1188,0.0654 l -0.0125,0.0347 c 0.0376,0.0215 0.0807,0.0438 0.1188,0.0654 l -0.0119,0.0347 c 0.0378,0.0216 0.081,0.0443 0.11937,0.0659 l -0.0125,0.0352 c 0.0379,0.0217 0.0815,0.0442 0.11994,0.0659 l -0.0119,0.0347 c 0.0385,0.022 0.0826,0.045 0.12165,0.0671 l -0.0125,0.0352 c 0.0385,0.022 0.0826,0.045 0.12164,0.0671 l -0.0125,0.0358 c 0.0391,0.0223 0.0837,0.0458 0.12335,0.0682 l -0.0125,0.0358 c 0.0391,0.0223 0.0837,0.0458 0.12336,0.0682 l -0.0125,0.0358 c 0.0394,0.0225 0.0846,0.0456 0.12449,0.0682 l -0.0131,0.0369 c 0.0398,0.0227 0.0853,0.0465 0.12563,0.0693 l -0.0131,0.0364 c 0.0399,0.0228 0.0857,0.0464 0.12619,0.0694 l -0.0131,0.0364 c 0.0403,0.0231 0.0864,0.0473 0.12734,0.0705 l -0.0131,0.0369 c 0.0405,0.0231 0.0868,0.0473 0.1279,0.0705 l -0.0131,0.0375 c 0.0405,0.0231 0.0868,0.0473 0.1279,0.0705 l -0.0131,0.0375 c 0.0408,0.0233 0.0876,0.0476 0.12903,0.0711 l -0.0131,0.0375 c 0.0414,0.0236 0.0887,0.0484 0.13074,0.0722 l -0.0137,0.0381 c 0.0417,0.0238 0.0895,0.0488 0.13188,0.0728 l -0.0137,0.0381 c 0.0419,0.0239 0.0899,0.0487 0.13245,0.0728 l -0.0137,0.0381 c 0.0421,0.024 0.0902,0.0492 0.13301,0.0733 l -0.0137,0.0392 c 0.0423,0.0241 0.0907,0.0491 0.13359,0.0733 l -0.0136,0.0387 c 0.0424,0.0242 0.091,0.0495 0.13415,0.0739 l -0.0142,0.0398 c 0.0428,0.0245 0.0918,0.0499 0.13529,0.0745 l -0.0136,0.0387 c 0.0431,0.0246 0.0926,0.0503 0.13642,0.075 l -0.0142,0.0398 c 0.0431,0.0247 0.0926,0.0503 0.13643,0.075 l -0.0142,0.0404 c 0.0437,0.025 0.0937,0.0511 0.13813,0.0762 l -0.0142,0.0404 c 0.0437,0.025 0.0937,0.0511 0.13813,0.0762 l -0.0142,0.0398 c 0.0442,0.0253 0.0949,0.0514 0.13984,0.0767 l -0.0148,0.0415 c 0.0444,0.0254 0.0952,0.0518 0.14041,0.0773 l -0.0142,0.0409 c 0.0448,0.0256 0.096,0.0522 0.14154,0.0779 l -0.0148,0.0409 c 0.0448,0.0256 0.096,0.0522 0.14154,0.0779 l -0.0148,0.0409 c 0.0453,0.0259 0.0971,0.053 0.14325,0.079 l -0.0148,0.0409 c 0.0453,0.0259 0.0971,0.053 0.14325,0.079 l -0.0148,0.0421 c 0.0457,0.0261 0.0979,0.0533 0.14439,0.0796 l -0.0153,0.0426 c 0.0458,0.0262 0.0983,0.0533 0.14495,0.0796 l -0.0148,0.0421 c 0.0464,0.0265 0.0995,0.0541 0.14666,0.0807 l -0.0153,0.0426 c 0.0466,0.0267 0.0998,0.0545 0.14723,0.0813 l -0.0153,0.0426 c 0.0466,0.0266 0.0998,0.0545 0.14723,0.0813 l -0.0153,0.0426 c 0.0473,0.027 0.10134,0.0553 0.1495,0.0824 l -0.0153,0.0426 c 0.0471,0.0269 0.10099,0.0548 0.14893,0.0819 l -0.0159,0.0443 c 0.0474,0.0271 0.10175,0.0552 0.15007,0.0824 l -0.0153,0.0432 c 0.0478,0.0273 0.10254,0.0555 0.15121,0.083 l -0.0159,0.0443 c 0.0482,0.0276 0.10322,0.0564 0.15234,0.0841 l -0.0153,0.0438 c 0.048,0.0274 0.10289,0.056 0.15178,0.0836 l -0.0159,0.0455 c 0.0487,0.0279 0.10441,0.0567 0.15404,0.0847 l -0.0159,0.0443 c 0.0486,0.0278 0.104,0.0568 0.15348,0.0847 l -0.0159,0.0455 c 0.0491,0.0281 0.10519,0.0571 0.15519,0.0853 l -0.0159,0.0443 c 0.0494,0.0282 0.10597,0.0574 0.15632,0.0858 l -0.0165,0.046 c 0.0498,0.0284 0.10674,0.0578 0.15746,0.0864 l -0.0165,0.046 c 0.0496,0.0284 0.10631,0.0579 0.15689,0.0864 l -0.0159,0.0455 c 0.0502,0.0287 0.10743,0.0587 0.1586,0.0875 l -0.0165,0.0466 c 0.0505,0.0289 0.10827,0.0585 0.15973,0.0875 l -0.0165,0.046 c 0.0503,0.0288 0.10787,0.0586 0.15917,0.0875 l -0.0165,0.0466 c 0.0511,0.0292 0.10933,0.0599 0.16144,0.0892 l -0.0165,0.0466 c 0.051,0.0292 0.10941,0.0593 0.16144,0.0887 l -0.0171,0.0477 c 0.0516,0.0295 0.11051,0.0601 0.16315,0.0898 l -0.0171,0.0472 c 0.0516,0.0295 0.11048,0.0601 0.16314,0.0898 l -0.0165,0.0472 c 0.052,0.0297 0.11128,0.0605 0.16428,0.0904 l -0.0171,0.0483 c 0.0522,0.0298 0.11164,0.061 0.16485,0.091 l -0.017,0.0483 c 0.0522,0.0298 0.11162,0.061 0.16484,0.0909 l -0.0171,0.0478 c 0.0529,0.0302 0.11318,0.0617 0.16712,0.0921 l -0.0171,0.0477 c 0.0529,0.0302 0.11318,0.0617 0.16712,0.0921 l -0.0171,0.0489 c 0.0534,0.0305 0.11438,0.062 0.16883,0.0926 l -0.0176,0.0495 c 0.0534,0.0305 0.11438,0.062 0.16883,0.0926 l -0.0176,0.0495 c 0.054,0.0308 0.11547,0.0628 0.17053,0.0938 l -0.0176,0.0495 c 0.0539,0.0308 0.11547,0.0628 0.17053,0.0938 l -0.0176,0.05 c 0.0543,0.0311 0.11618,0.0637 0.17167,0.0949 l -0.0176,0.05 c 0.0543,0.0311 0.11619,0.0637 0.17167,0.0949 l -0.0176,0.05 c 0.0546,0.0312 0.11704,0.0635 0.17281,0.0949 l -0.0182,0.0512 c 0.055,0.0315 0.11772,0.0644 0.17394,0.0961 l -0.0176,0.05 c 0.0552,0.0316 0.11814,0.0643 0.17452,0.0961 l -0.0176,0.0506 c 0.0558,0.0319 0.11926,0.0651 0.17622,0.0972 l -0.0182,0.0512 c 0.0558,0.0319 0.11924,0.0651 0.17621,0.0972 l -0.0182,0.0517 c 0.0561,0.0321 0.12004,0.0655 0.17735,0.0978 l -0.0182,0.0512 c 0.0564,0.0322 0.12036,0.0659 0.17793,0.0983 l -0.0182,0.0517 c 0.0566,0.0324 0.12123,0.0658 0.17906,0.0983 l -0.0188,0.0529 c 0.0567,0.0324 0.1211,0.0663 0.17906,0.0989 l -0.0182,0.0517 c 0.0572,0.0327 0.12234,0.0666 0.18076,0.0995 l -0.0187,0.0529 c 0.0575,0.0329 0.12309,0.067 0.1819,0.10004 l -0.0188,0.0529 c 0.0576,0.0329 0.12308,0.0669 0.18191,0.10004 l -0.0193,0.054 c 0.0582,0.0333 0.12464,0.0677 0.18417,0.10118 l -0.0187,0.0529 c 0.0578,0.033 0.12341,0.0674 0.18247,0.10062 l -0.0187,0.0534 c 0.0586,0.0335 0.1254,0.068 0.18531,0.10175 l -0.0193,0.054 c 0.0586,0.0335 0.12543,0.0681 0.18532,0.10175 l -0.0193,0.054 c 0.059,0.0337 0.12611,0.069 0.18645,0.10289 l -0.0193,0.0546 c 0.0592,0.0338 0.12651,0.0688 0.18701,0.10288 l -0.0193,0.0551 c 0.0597,0.0341 0.12771,0.0692 0.18872,0.10346 l -0.0193,0.054 c 0.0597,0.0341 0.12765,0.0697 0.18872,0.10402 l -0.0199,0.0551 c 0.0601,0.0343 0.12842,0.0701 0.18986,0.1046 l -0.0199,0.0557 c 0.0603,0.0344 0.12874,0.0705 0.19042,0.10517 l -0.0193,0.0546 c 0.0605,0.0346 0.12961,0.0703 0.19156,0.10516 l -0.0197,0.054 c 0.0608,0.0347 0.12996,0.0708 0.19214,0.10573 l -0.0199,0.0563 c 0.061,0.0348 0.1303,0.0712 0.1927,0.1063 l -0.0199,0.0557 c 0.0617,0.0352 0.13184,0.0719 0.19498,0.10743 l -0.0205,0.0568 c 0.0614,0.0351 0.13102,0.0716 0.19383,0.10687 l -0.0199,0.0563 c 0.0617,0.0352 0.13182,0.0719 0.19497,0.10743 l -0.0205,0.0574 c 0.062,0.0354 0.13259,0.0723 0.19612,0.108 l -0.0199,0.0568 c 0.0624,0.0357 0.13337,0.0727 0.19725,0.10857 l -0.0205,0.0574 c 0.0626,0.0358 0.13372,0.0731 0.19782,0.10914 l -0.0205,0.058 c 0.0627,0.0359 0.13414,0.073 0.19838,0.10914 l -0.0205,0.058 c 0.0631,0.0361 0.13489,0.0734 0.19952,0.10971 l -0.0205,0.058 c 0.0637,0.0364 0.13603,0.0742 0.20123,0.11085 l -0.021,0.0585 c 0.0633,0.0362 0.1352,0.0738 0.20009,0.11027 l -0.0205,0.0586 c 0.064,0.0366 0.13679,0.0746 0.20237,0.11142 l -0.0205,0.0585 c 0.064,0.0366 0.13679,0.0746 0.20237,0.11141 l -0.021,0.0597 c 0.0645,0.0369 0.13797,0.0748 0.20407,0.11198 l -0.021,0.0591 c 0.0647,0.037 0.13831,0.0753 0.20464,0.11255 l -0.0216,0.0602 c 0.0647,0.037 0.13832,0.0753 0.20463,0.11256 l -0.021,0.0597 c 0.0654,0.0374 0.13984,0.076 0.20691,0.11369 l -0.0216,0.0602 c 0.0655,0.0374 0.13976,0.0765 0.20691,0.11426 l -0.021,0.0597 c 0.0657,0.0375 0.14019,0.0765 0.20748,0.11425 l -0.0216,0.0608 c 0.066,0.0377 0.14095,0.0768 0.20861,0.11482 l -0.0216,0.0608 c 0.0663,0.0379 0.14174,0.0772 0.20975,0.11539 l -0.0216,0.0608 c 0.0663,0.0379 0.14172,0.0772 0.20975,0.1154 l -0.0216,0.0614 c 0.0667,0.0381 0.1425,0.0776 0.21089,0.11596 l -0.0222,0.062 c 0.0669,0.0382 0.14285,0.078 0.21146,0.11653 l -0.0216,0.0614 c 0.0674,0.0385 0.14404,0.0783 0.21316,0.1171 l -0.0222,0.062 c 0.0678,0.0387 0.14473,0.0792 0.21431,0.11824 l -0.0222,0.062 c 0.0678,0.0387 0.14473,0.0792 0.2143,0.11823 l -0.0222,0.062 c 0.0681,0.0389 0.14556,0.079 0.21544,0.11824 l -0.0227,0.0637 c 0.0682,0.039 0.14548,0.0795 0.21544,0.11881 l -0.0222,0.062 c 0.0687,0.0393 0.1466,0.0804 0.21714,0.11994 l -0.0222,0.0631 c 0.0687,0.0393 0.14661,0.0804 0.21715,0.11995 l -0.0222,0.0631 c 0.0692,0.0396 0.14779,0.0806 0.21885,0.12051 l -0.0227,0.0637 c 0.0692,0.0396 0.14777,0.0806 0.21885,0.12051 l -0.0182,0.0506 h 50.1791 c 6.648,0 12.00036,-5.35235 12.00036,-12.00035 v -57.40172 c -0.0665,-0.0351 -0.13529,-0.07 -0.20123,-0.10516 l 0.0279,-0.0762 c -0.0784,-0.0428 -0.16363,-0.0842 -0.24329,-0.12676 l 0.0273,-0.075 c -0.0781,-0.0426 -0.16279,-0.0844 -0.24216,-0.12676 l 0.0273,-0.075 c -0.0779,-0.0425 -0.16245,-0.0839 -0.24159,-0.1262 l 0.0279,-0.0762 c -0.0779,-0.0425 -0.16245,-0.0839 -0.24159,-0.12619 l 0.0273,-0.0739 c -0.0775,-0.0423 -0.16168,-0.0836 -0.24045,-0.12563 l 0.0273,-0.0739 c -0.0769,-0.042 -0.16058,-0.0827 -0.23874,-0.12449 l 0.0273,-0.0745 c -0.077,-0.042 -0.16052,-0.0833 -0.23874,-0.12505 l 0.0273,-0.0745 c -0.0766,-0.0418 -0.15982,-0.0824 -0.23761,-0.12392 l 0.0267,-0.0728 c -0.0762,-0.0416 -0.15905,-0.082 -0.23647,-0.12335 l 0.0273,-0.0745 c -0.0762,-0.0416 -0.15907,-0.082 -0.23647,-0.12335 l 0.0267,-0.0728 c -0.0757,-0.0413 -0.15788,-0.0817 -0.23477,-0.12279 l 0.0267,-0.0733 c -0.0756,-0.0413 -0.15795,-0.0812 -0.23476,-0.12222 l 0.0267,-0.0728 c -0.0751,-0.041 -0.15677,-0.0809 -0.23306,-0.12164 l 0.0261,-0.0722 c -0.0749,-0.0409 -0.15643,-0.0804 -0.23249,-0.12107 l 0.0267,-0.0733 c -0.0746,-0.0407 -0.15558,-0.0806 -0.23135,-0.12108 l 0.0261,-0.0716 c -0.0745,-0.0407 -0.15566,-0.08 -0.23135,-0.12051 l 0.0261,-0.0716 c -0.0742,-0.0405 -0.1549,-0.0797 -0.23021,-0.11994 l 0.0261,-0.0711 c -0.0738,-0.0403 -0.1541,-0.0793 -0.22908,-0.11938 l 0.0261,-0.0716 c -0.0737,-0.0402 -0.15372,-0.0794 -0.22852,-0.11937 l 0.0256,-0.0705 c -0.0735,-0.0401 -0.15338,-0.0789 -0.22795,-0.1188 l 0.0261,-0.0711 c -0.0731,-0.0399 -0.15256,-0.0791 -0.22681,-0.1188 l 0.0256,-0.0705 c -0.0727,-0.0397 -0.15185,-0.0782 -0.22567,-0.11767 l 0.0256,-0.0705 c -0.0724,-0.0395 -0.15108,-0.0778 -0.22453,-0.1171 l 0.0256,-0.0699 c -0.0724,-0.0395 -0.15109,-0.0778 -0.22453,-0.1171 l 0.0256,-0.0699 c -0.072,-0.0393 -0.15032,-0.0774 -0.2234,-0.11653 l 0.0256,-0.0694 c -0.0719,-0.0392 -0.14991,-0.0775 -0.22283,-0.11653 l 0.025,-0.0682 c -0.0714,-0.039 -0.14922,-0.0766 -0.22169,-0.11539 l 0.0256,-0.0699 c -0.0713,-0.0389 -0.1488,-0.0767 -0.22112,-0.1154 l 0.025,-0.0682 c -0.0709,-0.0387 -0.14804,-0.0763 -0.21999,-0.11482 l 0.025,-0.0682 c -0.0709,-0.0387 -0.14804,-0.0763 -0.21999,-0.11482 l 0.025,-0.0682 c -0.0702,-0.0383 -0.14651,-0.0756 -0.21771,-0.11369 l 0.0245,-0.0677 c -0.0702,-0.0383 -0.14651,-0.0756 -0.21772,-0.11368 l 0.025,-0.0682 c -0.0698,-0.0381 -0.14574,-0.0752 -0.21657,-0.11312 l 0.0245,-0.0671 c -0.0698,-0.0381 -0.14575,-0.0752 -0.21658,-0.11312 l 0.0245,-0.0665 c -0.0695,-0.0379 -0.14499,-0.0748 -0.21544,-0.11255 l 0.0244,-0.0665 c -0.0691,-0.0377 -0.14422,-0.0745 -0.2143,-0.11198 l 0.0245,-0.0659 c -0.0687,-0.0375 -0.14345,-0.0741 -0.21317,-0.11142 l 0.0245,-0.0665 c -0.0685,-0.0374 -0.14311,-0.0736 -0.21259,-0.11085 l 0.0244,-0.0665 c -0.0684,-0.0373 -0.14269,-0.0737 -0.21202,-0.11084 l 0.0239,-0.0648 c -0.068,-0.0371 -0.14193,-0.0734 -0.21089,-0.11028 l 0.0239,-0.0659 c -0.0676,-0.0369 -0.14116,-0.073 -0.20975,-0.10971 l 0.0239,-0.0654 c -0.0676,-0.0369 -0.14125,-0.0724 -0.20976,-0.10914 l 0.0239,-0.0648 c -0.0674,-0.0368 -0.14083,-0.0725 -0.20919,-0.10914 l 0.0239,-0.0648 c -0.0667,-0.0364 -0.13929,-0.0718 -0.20691,-0.108 l 0.0233,-0.0642 c -0.0667,-0.0364 -0.13929,-0.0718 -0.20691,-0.10801 l 0.0239,-0.0648 c -0.0665,-0.0363 -0.13896,-0.0713 -0.20635,-0.10743 l 0.0233,-0.0637 c -0.066,-0.036 -0.13777,-0.071 -0.20464,-0.10687 l 0.0233,-0.0642 c -0.0661,-0.0361 -0.13819,-0.071 -0.20521,-0.10687 l 0.0233,-0.0631 c -0.0654,-0.0357 -0.13666,-0.0702 -0.20293,-0.10573 l 0.0233,-0.0631 c -0.0655,-0.0357 -0.13659,-0.0707 -0.20293,-0.1063 l 0.0227,-0.0625 c -0.0651,-0.0355 -0.13582,-0.0704 -0.2018,-0.10573 l 0.0227,-0.0625 c -0.0647,-0.0353 -0.13513,-0.0695 -0.20066,-0.10459 l 0.0227,-0.0625 c -0.0645,-0.0352 -0.13471,-0.0695 -0.20009,-0.10459 l 0.0227,-0.062 c -0.0643,-0.0351 -0.13437,-0.0691 -0.19952,-0.10403 l 0.0227,-0.062 c -0.0641,-0.035 -0.13395,-0.0692 -0.19895,-0.10402 l 0.0227,-0.0614 c -0.0636,-0.0347 -0.13284,-0.0684 -0.19725,-0.10289 l 0.0227,-0.062 c -0.0632,-0.0345 -0.13207,-0.068 -0.19611,-0.10232 l 0.0222,-0.0608 c -0.0634,-0.0346 -0.13243,-0.0684 -0.19669,-0.10289 l 0.0222,-0.0608 c -0.0628,-0.0343 -0.13132,-0.0676 -0.19497,-0.10176 l 0.0222,-0.0602 c -0.0626,-0.0342 -0.13097,-0.0672 -0.1944,-0.10118 l 0.0222,-0.0608 c -0.0624,-0.034 -0.1301,-0.0673 -0.19327,-0.10118 l 0.0216,-0.0597 c -0.0621,-0.0339 -0.12979,-0.0669 -0.1927,-0.10061 l 0.0216,-0.0597 c -0.0618,-0.0337 -0.12902,-0.0665 -0.19156,-0.10004 l 0.0216,-0.0597 c -0.0614,-0.0335 -0.12825,-0.0661 -0.19043,-0.0995 l 0.0216,-0.0597 c -0.0615,-0.0336 -0.12868,-0.066 -0.191,-0.0995 l 0.0216,-0.0586 c -0.061,-0.0333 -0.12749,-0.0657 -0.18929,-0.0989 l 0.0216,-0.0591 c -0.0608,-0.0332 -0.12715,-0.0653 -0.18872,-0.0983 l 0.0216,-0.0585 c -0.0605,-0.033 -0.12638,-0.0649 -0.18758,-0.0978 l 0.0216,-0.0585 c -0.0603,-0.0329 -0.12596,-0.065 -0.18701,-0.0978 l 0.021,-0.058 c -0.0596,-0.0325 -0.12443,-0.0643 -0.18475,-0.0966 l 0.0211,-0.0574 c -0.0601,-0.0328 -0.12562,-0.0646 -0.18645,-0.0972 l 0.021,-0.0568 c -0.0592,-0.0323 -0.12367,-0.0639 -0.18361,-0.0961 l 0.0211,-0.058 c -0.0594,-0.0324 -0.12409,-0.0638 -0.18418,-0.0961 l 0.021,-0.0568 c -0.0588,-0.0321 -0.1229,-0.0635 -0.18247,-0.0955 l 0.0205,-0.0563 c -0.0585,-0.0319 -0.12214,-0.0632 -0.18133,-0.0949 l 0.0205,-0.0563 c -0.0584,-0.0319 -0.12222,-0.0626 -0.18133,-0.0944 l 0.021,-0.0568 c -0.058,-0.0317 -0.12145,-0.0623 -0.1802,-0.0938 l 0.0205,-0.0563 c -0.0579,-0.0316 -0.12102,-0.0623 -0.17963,-0.0938 l 0.0205,-0.0551 c -0.0575,-0.0314 -0.12026,-0.062 -0.17849,-0.0932 l 0.0205,-0.0557 c -0.0574,-0.0313 -0.11984,-0.062 -0.17792,-0.0932 l 0.0199,-0.0546 c -0.057,-0.0311 -0.11916,-0.0611 -0.17678,-0.0921 l 0.0199,-0.0551 c -0.0568,-0.031 -0.11873,-0.0612 -0.17621,-0.0921 l 0.0199,-0.054 c -0.0562,-0.0307 -0.11762,-0.0604 -0.17451,-0.091 l 0.0199,-0.0546 c -0.0561,-0.0306 -0.1172,-0.0605 -0.17395,-0.0909 l 0.0199,-0.054 c -0.0561,-0.0306 -0.11721,-0.0605 -0.17394,-0.091 l 0.0199,-0.0546 c -0.0556,-0.0304 -0.11651,-0.0596 -0.1728,-0.0898 l 0.0199,-0.054 c -0.0555,-0.0303 -0.11609,-0.0596 -0.17224,-0.0898 l 0.0193,-0.0529 c -0.055,-0.03 -0.11492,-0.0594 -0.17053,-0.0892 l 0.0193,-0.0529 c -0.055,-0.03 -0.11491,-0.0593 -0.17053,-0.0892 l 0.0193,-0.0529 c -0.0546,-0.0298 -0.11421,-0.0585 -0.16939,-0.0881 l 0.0193,-0.0529 c -0.0544,-0.0297 -0.11379,-0.0585 -0.16882,-0.0881 l 0.0187,-0.0517 c -0.0538,-0.0294 -0.11268,-0.0577 -0.16712,-0.087 l 0.0193,-0.0523 c -0.0537,-0.0293 -0.11227,-0.0578 -0.16656,-0.087 l 0.0188,-0.0517 c -0.0537,-0.0293 -0.11228,-0.0578 -0.16655,-0.087 l 0.0193,-0.0523 c -0.0533,-0.0291 -0.1115,-0.0574 -0.16541,-0.0864 l 0.0187,-0.0506 c -0.0531,-0.029 -0.11115,-0.057 -0.16485,-0.0858 l 0.0188,-0.0512 c -0.0526,-0.0287 -0.10997,-0.0567 -0.16314,-0.0853 l 0.0187,-0.0506 c -0.0527,-0.0288 -0.11039,-0.0566 -0.16371,-0.0853 l 0.0188,-0.0512 c -0.0519,-0.0283 -0.10843,-0.0559 -0.16087,-0.0841 l 0.0182,-0.0495 c -0.052,-0.0284 -0.10885,-0.0558 -0.16143,-0.0841 l 0.0182,-0.05 c -0.0517,-0.0282 -0.10809,-0.0555 -0.1603,-0.0836 l 0.0182,-0.0506 c -0.0513,-0.028 -0.10733,-0.0551 -0.15917,-0.083 l 0.0182,-0.0489 c -0.0513,-0.028 -0.10732,-0.0551 -0.15916,-0.083 l 0.0182,-0.0489 c -0.0509,-0.0278 -0.10656,-0.0547 -0.15803,-0.0824 l 0.0182,-0.0495 c -0.0506,-0.0276 -0.10579,-0.0544 -0.15689,-0.0819 l 0.0176,-0.0483 c -0.0502,-0.0274 -0.10503,-0.054 -0.15575,-0.0813 l 0.0182,-0.0489 c -0.0502,-0.0274 -0.10503,-0.054 -0.15575,-0.0813 l 0.0176,-0.0477 c -0.0495,-0.027 -0.1035,-0.0532 -0.15348,-0.0801 l 0.0176,-0.0489 c -0.0497,-0.0271 -0.10384,-0.0537 -0.15404,-0.0807 l 0.0171,-0.0472 c -0.0491,-0.0268 -0.10273,-0.0529 -0.15234,-0.0796 l 0.0171,-0.0472 c -0.0489,-0.0267 -0.10239,-0.0524 -0.15178,-0.079 l 0.0171,-0.0472 c -0.0485,-0.0265 -0.10162,-0.0521 -0.15064,-0.0785 l 0.0176,-0.0478 c -0.0486,-0.0265 -0.10155,-0.0526 -0.15064,-0.079 l 0.0165,-0.0455 c -0.048,-0.0262 -0.10044,-0.0518 -0.14893,-0.0779 l 0.017,-0.0466 c -0.048,-0.0262 -0.10042,-0.0518 -0.14892,-0.0779 l 0.017,-0.0461 c -0.0477,-0.026 -0.0997,-0.0514 -0.14779,-0.0773 l 0.0165,-0.0455 c -0.0473,-0.0258 -0.0989,-0.051 -0.14666,-0.0767 l 0.0165,-0.0455 c -0.0469,-0.0256 -0.0981,-0.0506 -0.14552,-0.0762 l 0.0165,-0.0455 c -0.0467,-0.0255 -0.0978,-0.0502 -0.14495,-0.0756 l 0.0165,-0.0455 c -0.0467,-0.0255 -0.0978,-0.0502 -0.14495,-0.0756 l 0.0165,-0.0443 c -0.0461,-0.0252 -0.0967,-0.0494 -0.14325,-0.0745 l 0.0165,-0.0449 c -0.0462,-0.0252 -0.0966,-0.0499 -0.14324,-0.075 l 0.0159,-0.0438 c -0.0456,-0.0249 -0.0955,-0.0491 -0.14154,-0.0739 l 0.0159,-0.0443 c -0.0455,-0.0248 -0.0951,-0.0492 -0.14097,-0.0739 l 0.0159,-0.0438 c -0.0451,-0.0246 -0.0944,-0.0483 -0.13984,-0.0728 l 0.0159,-0.0432 c -0.0451,-0.0246 -0.0943,-0.0488 -0.13984,-0.0733 l 0.0159,-0.0438 c -0.0445,-0.0243 -0.0932,-0.048 -0.13813,-0.0722 l 0.0159,-0.0426 c -0.0445,-0.0243 -0.0932,-0.048 -0.13813,-0.0722 l 0.0159,-0.0432 c -0.0442,-0.0241 -0.0924,-0.0476 -0.13699,-0.0716 l 0.0153,-0.0409 c -0.0438,-0.0239 -0.0917,-0.0472 -0.13586,-0.0711 l 0.0159,-0.0432 c -0.0436,-0.0238 -0.0913,-0.0468 -0.13529,-0.0705 l 0.0153,-0.0415 c -0.0435,-0.0237 -0.0909,-0.0469 -0.13472,-0.0705 l 0.0153,-0.0415 c -0.0431,-0.0235 -0.0901,-0.0465 -0.13359,-0.0699 l 0.0148,-0.0409 c -0.0431,-0.0235 -0.0901,-0.0465 -0.13358,-0.0699 l 0.0153,-0.0415 c -0.0425,-0.0232 -0.089,-0.0457 -0.13187,-0.0688 l 0.0148,-0.0409 c -0.0422,-0.023 -0.0882,-0.0453 -0.13074,-0.0682 l 0.0148,-0.0409 c -0.0418,-0.0228 -0.0875,-0.0449 -0.1296,-0.0676 l 0.0148,-0.0404 c -0.0418,-0.0228 -0.0875,-0.0449 -0.12961,-0.0676 l 0.0148,-0.0404 c -0.0416,-0.0227 -0.0871,-0.0445 -0.12904,-0.0671 l 0.0148,-0.0398 c -0.0412,-0.0225 -0.0864,-0.0441 -0.1279,-0.0665 l 0.0148,-0.0398 c -0.0409,-0.0223 -0.0855,-0.0443 -0.12676,-0.0665 l 0.0142,-0.0392 c -0.0405,-0.0221 -0.0847,-0.0439 -0.12562,-0.0659 l 0.0142,-0.0392 c -0.0403,-0.022 -0.0844,-0.0434 -0.12506,-0.0654 l 0.0142,-0.0386 c -0.0403,-0.022 -0.0844,-0.0434 -0.12506,-0.0654 l 0.0142,-0.0387 c -0.0397,-0.0217 -0.0833,-0.0426 -0.12335,-0.0642 l 0.0142,-0.0386 c -0.0396,-0.0216 -0.0829,-0.0427 -0.12278,-0.0642 l 0.0136,-0.0375 c -0.0392,-0.0214 -0.0821,-0.0423 -0.12165,-0.0637 l 0.0137,-0.0375 c -0.039,-0.0213 -0.0817,-0.0419 -0.12108,-0.0631 l 0.0142,-0.0381 c -0.0389,-0.0212 -0.0813,-0.0419 -0.12052,-0.0631 l 0.0137,-0.0369 c -0.0387,-0.0211 -0.081,-0.0415 -0.11994,-0.0625 l 0.0137,-0.0375 c -0.0379,-0.0207 -0.0794,-0.0408 -0.11766,-0.0614 l 0.0131,-0.0364 c -0.0378,-0.0206 -0.079,-0.0408 -0.1171,-0.0614 l 0.0131,-0.0364 c -0.0379,-0.0207 -0.0795,-0.0408 -0.11767,-0.0614 l 0.0136,-0.0369 c -0.0374,-0.0204 -0.0783,-0.0399 -0.11597,-0.0603 l 0.0131,-0.0358 c -0.0372,-0.0203 -0.0779,-0.04 -0.11539,-0.0603 l 0.0131,-0.0352 c -0.037,-0.0202 -0.0775,-0.0401 -0.11483,-0.0603 l 0.0131,-0.0358 c -0.0365,-0.0199 -0.0764,-0.0393 -0.11312,-0.0591 l 0.0131,-0.0352 c -0.0363,-0.0198 -0.076,-0.0393 -0.11255,-0.0591 l 0.0125,-0.0347 c -0.0362,-0.0198 -0.076,-0.0388 -0.11255,-0.0586 l 0.0125,-0.0347 c -0.0356,-0.0194 -0.0744,-0.0386 -0.11028,-0.058 l 0.0125,-0.0347 c -0.0355,-0.0194 -0.0745,-0.0381 -0.11028,-0.0574 l 0.0119,-0.0335 c -0.0353,-0.0193 -0.0741,-0.0376 -0.10971,-0.0568 l 0.0131,-0.0352 c -0.035,-0.0191 -0.0733,-0.0378 -0.10858,-0.0568 l 0.0125,-0.0335 c -0.0348,-0.019 -0.073,-0.0373 -0.10801,-0.0563 l 0.0119,-0.0335 c -0.0343,-0.0187 -0.0718,-0.037 -0.1063,-0.0557 l 0.0119,-0.033 c -0.0341,-0.0186 -0.0714,-0.0366 -0.10573,-0.0551 l 0.0119,-0.033 c -0.0341,-0.0186 -0.0714,-0.0366 -0.10573,-0.0551 l 0.0119,-0.033 c -0.0336,-0.0183 -0.0702,-0.0363 -0.10402,-0.0546 l 0.0119,-0.0324 c -0.0334,-0.0182 -0.0699,-0.0359 -0.10346,-0.054 l 0.0114,-0.0318 c -0.033,-0.018 -0.0691,-0.0355 -0.10232,-0.0534 l 0.0114,-0.0318 c -0.033,-0.018 -0.0691,-0.0355 -0.10232,-0.0534 l 0.0114,-0.0313 c -0.0325,-0.0177 -0.0679,-0.0352 -0.10061,-0.0529 l 0.0114,-0.0313 c -0.0323,-0.0176 -0.0676,-0.0347 -0.10005,-0.0523 l 0.0114,-0.0318 c -0.032,-0.0175 -0.0672,-0.0343 -0.0995,-0.0517 l 0.0114,-0.0313 c -0.0319,-0.0174 -0.0668,-0.0344 -0.0989,-0.0517 l 0.0108,-0.0301 c -0.0313,-0.0171 -0.0657,-0.0336 -0.0972,-0.0506 l 0.0114,-0.0307 c -0.0313,-0.0171 -0.0657,-0.0335 -0.0972,-0.0506 l 0.0108,-0.0301 c -0.0312,-0.017 -0.0653,-0.0336 -0.0966,-0.0506 l 0.0108,-0.0296 c -0.0306,-0.0167 -0.0641,-0.0328 -0.0949,-0.0495 l 0.0108,-0.0296 c -0.0305,-0.0166 -0.0637,-0.0329 -0.0944,-0.0494 l 0.0108,-0.0296 c -0.0302,-0.0165 -0.0634,-0.0324 -0.0938,-0.0489 l 0.0108,-0.029 c -0.03,-0.0164 -0.063,-0.032 -0.0932,-0.0483 l 0.0108,-0.029 c -0.0297,-0.0162 -0.0622,-0.0321 -0.0921,-0.0483 l 0.0102,-0.0284 c -0.0293,-0.016 -0.0615,-0.0312 -0.091,-0.0472 l 0.0108,-0.029 c -0.029,-0.0158 -0.0607,-0.0314 -0.0898,-0.0472 l 0.0102,-0.0279 c -0.029,-0.0158 -0.0607,-0.0314 -0.0898,-0.0472 l 0.01,-0.0267 c -0.0284,-0.0155 -0.0595,-0.0306 -0.0881,-0.046 l 0.0102,-0.0279 c -0.0285,-0.0156 -0.0599,-0.0305 -0.0887,-0.046 l 0.0102,-0.0273 c -0.0278,-0.0152 -0.0584,-0.0298 -0.0864,-0.0449 l 0.01,-0.0267 c -0.0279,-0.0152 -0.0583,-0.0303 -0.0864,-0.0455 l 0.01,-0.0267 c -0.0273,-0.0149 -0.0572,-0.0295 -0.0847,-0.0443 l 0.01,-0.0267 c -0.0273,-0.0149 -0.0572,-0.0295 -0.0847,-0.0443 l 0.01,-0.0256 c -0.0271,-0.0148 -0.0569,-0.029 -0.0841,-0.0438 l 0.01,-0.0262 c -0.0267,-0.0146 -0.0561,-0.0286 -0.083,-0.0432 l 0.009,-0.0256 c -0.0262,-0.0143 -0.0549,-0.0283 -0.0813,-0.0426 l 0.01,-0.0256 c -0.0264,-0.0144 -0.0553,-0.0283 -0.0819,-0.0426 l 0.01,-0.0256 c -0.0259,-0.0141 -0.0542,-0.028 -0.0802,-0.0421 l 0.009,-0.025 c -0.0258,-0.0141 -0.0542,-0.0274 -0.0802,-0.0415 l 0.009,-0.0245 c -0.0253,-0.0138 -0.053,-0.0272 -0.0784,-0.0409 l 0.009,-0.0239 c -0.0251,-0.0137 -0.0527,-0.0267 -0.0779,-0.0404 l 0.009,-0.0245 c -0.0248,-0.0135 -0.0518,-0.0269 -0.0767,-0.0404 l 0.009,-0.0239 c -0.0246,-0.0134 -0.0515,-0.0264 -0.0762,-0.0398 l 0.009,-0.0244 c -0.0243,-0.0133 -0.0511,-0.026 -0.0756,-0.0392 l 0.009,-0.0227 c -0.024,-0.0131 -0.0504,-0.0256 -0.0745,-0.0387 l 0.009,-0.0233 c -0.0236,-0.0129 -0.0496,-0.0252 -0.0733,-0.0381 l 0.009,-0.0239 c -0.0236,-0.0129 -0.0496,-0.0252 -0.0733,-0.0381 l 0.008,-0.0216 c -0.0233,-0.0127 -0.0488,-0.0249 -0.0722,-0.0375 l 0.009,-0.0227 c -0.0229,-0.0125 -0.0481,-0.0245 -0.071,-0.037 l 0.008,-0.0222 c -0.0225,-0.0123 -0.0473,-0.0241 -0.0699,-0.0364 l 0.008,-0.0222 c -0.0225,-0.0123 -0.0473,-0.0241 -0.0699,-0.0364 l 0.008,-0.0216 c -0.0221,-0.0121 -0.0465,-0.0238 -0.0688,-0.0358 l 0.008,-0.0216 c -0.0218,-0.0119 -0.0457,-0.0234 -0.0677,-0.0353 l 0.007,-0.0205 c -0.0216,-0.0118 -0.0454,-0.0229 -0.0671,-0.0347 l 0.008,-0.0216 c -0.0215,-0.0117 -0.045,-0.023 -0.0665,-0.0347 l 0.007,-0.0205 c -0.0211,-0.0115 -0.0442,-0.0226 -0.0654,-0.0341 l 0.007,-0.0205 c -0.0207,-0.0113 -0.0434,-0.0223 -0.0642,-0.0335 l 0.007,-0.0199 c -0.0203,-0.0111 -0.0427,-0.0219 -0.0631,-0.033 l 0.007,-0.0199 c -0.0205,-0.0112 -0.0431,-0.0218 -0.0637,-0.033 l 0.007,-0.0199 c -0.02,-0.0109 -0.0419,-0.0215 -0.062,-0.0324 l 0.007,-0.0188 c -0.0196,-0.0107 -0.0411,-0.0212 -0.0608,-0.0318 l 0.007,-0.0188 c -0.0196,-0.0107 -0.0411,-0.0212 -0.0608,-0.0318 l 0.007,-0.0182 c -0.0189,-0.0103 -0.0396,-0.0204 -0.0585,-0.0307 l 0.007,-0.0193 c -0.019,-0.0104 -0.04,-0.0203 -0.0591,-0.0307 l 0.007,-0.0188 c -0.0187,-0.0102 -0.0392,-0.02 -0.058,-0.0301 l 0.006,-0.0176 c -0.0182,-0.01 -0.038,-0.0197 -0.0563,-0.0296 l 0.006,-0.0176 c -0.0182,-0.01 -0.038,-0.0196 -0.0563,-0.0296 l 0.006,-0.0171 c -0.0178,-0.01 -0.0373,-0.0193 -0.0551,-0.029 l 0.006,-0.017 c -0.0176,-0.01 -0.0369,-0.0188 -0.0546,-0.0284 l 0.006,-0.0176 c -0.0172,-0.009 -0.0361,-0.0185 -0.0534,-0.0279 l 0.006,-0.0165 c -0.0171,-0.009 -0.0357,-0.0185 -0.0529,-0.0279 l 0.006,-0.0159 c -0.0167,-0.009 -0.035,-0.0182 -0.0517,-0.0273 l 0.006,-0.0159 c -0.0164,-0.009 -0.0342,-0.0178 -0.0506,-0.0267 l 0.006,-0.0159 c -0.0163,-0.009 -0.0343,-0.0173 -0.0506,-0.0262 l 0.006,-0.0159 c -0.0159,-0.009 -0.0335,-0.0169 -0.0495,-0.0256 l 0.006,-0.0153 c -0.0158,-0.009 -0.0331,-0.017 -0.0489,-0.0256 l 0.006,-0.0153 c -0.0154,-0.008 -0.0323,-0.0166 -0.0478,-0.025 l 0.006,-0.0153 c -0.0152,-0.008 -0.032,-0.0162 -0.0472,-0.0245 l 0.005,-0.0142 c -0.0148,-0.008 -0.0312,-0.0158 -0.046,-0.0239 l 0.005,-0.0142 c -0.0145,-0.008 -0.0304,-0.0154 -0.0449,-0.0233 l 0.005,-0.0148 c -0.0147,-0.008 -0.0308,-0.0159 -0.0455,-0.0239 l 0.005,-0.0131 c -0.0141,-0.008 -0.0296,-0.015 -0.0438,-0.0227 l 0.005,-0.0136 c -0.0139,-0.008 -0.0293,-0.0146 -0.0432,-0.0222 l 0.005,-0.0136 c -0.0134,-0.007 -0.0281,-0.0143 -0.0415,-0.0216 l 0.005,-0.0131 c -0.0132,-0.007 -0.0277,-0.0144 -0.0409,-0.0216 l 0.005,-0.0125 c -0.013,-0.007 -0.0273,-0.0139 -0.0404,-0.0211 l 0.005,-0.0131 c -0.0126,-0.007 -0.0265,-0.0136 -0.0392,-0.0205 l 0.005,-0.0125 c -0.0124,-0.007 -0.0262,-0.0131 -0.0387,-0.0199 l 0.005,-0.0119 c -0.0124,-0.007 -0.0262,-0.0131 -0.0387,-0.0199 l 0.005,-0.0125 c -0.0119,-0.006 -0.025,-0.0128 -0.037,-0.0193 l 0.004,-0.0102 c -0.0117,-0.006 -0.0247,-0.0124 -0.0364,-0.0188 l 0.005,-0.0125 c -0.0113,-0.006 -0.0239,-0.012 -0.0352,-0.0182 l 0.004,-0.0108 c -0.0113,-0.006 -0.0239,-0.012 -0.0352,-0.0182 l 0.004,-0.0108 c -0.0108,-0.006 -0.0227,-0.0117 -0.0335,-0.0176 l 0.004,-0.0102 c -0.0106,-0.006 -0.0223,-0.0113 -0.033,-0.0171 l 0.004,-0.0102 c -0.0102,-0.006 -0.0216,-0.0109 -0.0318,-0.0165 l 0.003,-0.0102 c -0.0101,-0.006 -0.0212,-0.011 -0.0313,-0.0165 l 0.003,-0.01 c -0.01,-0.005 -0.0204,-0.0106 -0.0301,-0.0159 l 0.003,-0.009 c -0.01,-0.005 -0.02,-0.0102 -0.0296,-0.0153 l 0.003,-0.01 c -0.01,-0.005 -0.02,-0.0102 -0.0296,-0.0153 l 0.003,-0.009 c -0.009,-0.005 -0.0185,-0.009 -0.0273,-0.0142 l 0.003,-0.009 c -0.009,-0.005 -0.0181,-0.009 -0.0267,-0.0137 l 0.003,-0.008 c -0.008,-0.005 -0.0177,-0.009 -0.0262,-0.0137 l 0.003,-0.009 c -0.008,-0.004 -0.0174,-0.009 -0.0256,-0.0131 l 0.003,-0.008 c -0.008,-0.004 -0.0169,-0.009 -0.025,-0.0131 l 0.003,-0.008 c -0.008,-0.004 -0.0157,-0.008 -0.0233,-0.0125 l 0.002,-0.006 c -0.007,-0.004 -0.0154,-0.008 -0.0227,-0.0119 l 0.003,-0.007 c -0.007,-0.004 -0.0154,-0.008 -0.0227,-0.0119 l 0.003,-0.007 c -0.007,-0.004 -0.0143,-0.007 -0.021,-0.0108 l 0.003,-0.007 c -0.006,-0.004 -0.0134,-0.007 -0.0199,-0.0108 l 0.002,-0.005 c -0.006,-0.003 -0.0135,-0.007 -0.0199,-0.0102 l 0.002,-0.007 c -0.006,-0.003 -0.012,-0.006 -0.0176,-0.009 l 0.002,-0.006 c -0.006,-0.003 -0.0123,-0.006 -0.0182,-0.01 l 0.002,-0.006 c -0.006,-0.003 -0.0115,-0.006 -0.0171,-0.009 l 0.002,-0.005 c -0.005,-0.003 -0.0116,-0.006 -0.0171,-0.009 l 0.002,-0.006 c -0.005,-0.003 -0.01,-0.005 -0.0148,-0.008 l 0.002,-0.005 c -0.005,-0.003 -0.01,-0.005 -0.0148,-0.007 l 0.002,-0.005 c -0.004,-0.002 -0.009,-0.005 -0.0131,-0.007 l 0.001,-0.004 c -0.004,-0.002 -0.009,-0.004 -0.0136,-0.007 l 0.002,-0.005 c -0.004,-0.002 -0.008,-0.004 -0.0125,-0.006 l 0.001,-0.003 c -0.003,-0.002 -0.007,-0.004 -0.0108,-0.006 l 0.001,-0.003 c -0.003,-0.002 -0.007,-0.004 -0.0102,-0.006 l 0.001,-0.003 c -0.003,-10e-4 -0.006,-0.003 -0.009,-0.005 l 0.001,-0.003 c -0.003,-0.001 -0.006,-0.003 -0.009,-0.005 l 5.8e-4,-0.002 c -0.003,-10e-4 -0.005,-0.003 -0.008,-0.004 l 0.001,-0.003 c -0.002,-0.001 -0.005,-0.002 -0.007,-0.003 l 5.8e-4,-0.002 c -0.002,-10e-4 -0.005,-0.002 -0.007,-0.003 l 5.8e-4,-0.002 c -0.002,-8.7e-4 -0.003,-0.002 -0.005,-0.003 l 5.8e-4,-0.002 c -0.001,-5.9e-4 -0.003,-0.001 -0.004,-0.002 v -5.8e-4 c -0.001,-5.9e-4 -0.003,-10e-4 -0.004,-0.002 l 5.8e-4,-0.001 c -0.001,-5.9e-4 -0.002,-10e-4 -0.003,-0.002 l 5.8e-4,-0.002 c -5.8e-4,-2.7e-4 -0.001,-2.9e-4 -0.002,-5.8e-4 l 5.8e-4,-0.001 c -5.8e-4,-2.9e-4 -0.001,-8.8e-4 -0.002,-0.001 -0.32942,-0.17964 -0.67022,-0.35728 -1.02206,-0.53319 -5.8e-4,-3e-4 -0.001,-8.8e-4 -0.002,-0.001 -0.35176,-0.17585 -0.71497,-0.3497 -1.08914,-0.52183 -8.7e-4,-2.9e-4 -10e-4,-8.7e-4 -0.002,-0.001 -0.74928,-0.34467 -1.54379,-0.68156 -2.3829,-1.01126 -8.7e-4,-2.9e-4 -0.001,-8.7e-4 -0.002,-10e-4 -0.41923,-0.16469 -0.84985,-0.32734 -1.2915,-0.48829 -8.7e-4,-2.8e-4 -0.001,-8.8e-4 -0.002,-10e-4 -0.4425,-0.16124 -0.89585,-0.32056 -1.36085,-0.47806 -0.93,-0.315 -1.9052,-0.62258 -2.9252,-0.92258 -0.765,-0.225 -1.55651,-0.42883 -2.37494,-0.61164 -0.54563,-0.12188 -1.10355,-0.23453 -1.67292,-0.33765 -0.85407,-0.15469 -1.73462,-0.28825 -2.64212,-0.40075 -1.815,-0.225 -3.73694,-0.36554 -5.76569,-0.42179 -0.67625,-0.0187 -1.36401,-0.0284 -2.06401,-0.0284 z" />
      <g
         aria-label="S"
         id="text55"
         style="font-weight:bold;font-size:120px;font-family:Ubuntu;text-anchor:middle;fill:#ffffff">
        <path
           d="m 139.36007,165.72 q 3.96,0 6.48,-0.6 2.64,-0.72 4.2,-1.8 1.56,-1.2 2.16,-2.76 0.6,-1.56 0.6,-3.48 0,-4.08 -3.84,-6.72 -3.84,-2.76 -13.2,-5.88 -4.08,-1.44 -8.16,-3.24 -4.08,-1.92 -7.32,-4.68 -3.24,-2.88 -5.28,-6.84 -2.04,-4.08 -2.04,-9.84 0,-5.76 2.16,-10.32 2.16,-4.68 6.12,-7.92 3.96,-3.24 9.6,-4.92 5.64,-1.8 12.72,-1.8 8.4,0 14.52,1.8 6.12,1.8 10.08,3.96 l -5.4,14.76 q -3.48,-1.8 -7.8,-3.12 -4.2,-1.44 -10.2,-1.44 -6.72,0 -9.72,1.92 -2.88,1.8 -2.88,5.64 0,2.28 1.08,3.84 1.08,1.56 3,2.88 2.04,1.2 4.56,2.28 2.64,0.96 5.76,2.04 6.48,2.4 11.28,4.8 4.8,2.28 7.92,5.4 3.24,3.12 4.8,7.32 1.56,4.2 1.56,10.2 0,11.64 -8.16,18.12 -8.16,6.36 -24.6,6.36 -5.52,0 -9.96,-0.72 -4.44,-0.6 -7.92,-1.56 -3.36,-0.96 -5.88,-2.04 -2.4,-1.08 -4.08,-2.04 l 5.28,-14.88 q 3.72,2.04 9.12,3.72 5.52,1.56 13.44,1.56 z"
           id="path2991" />
      </g>
    </g>
    <g
       inkscape:groupmode="layer"
       id="layer6"
       inkscape:label="Ebene 6"
       style="display:none">
      <path
         d="m 139.36007,165.72 q 3.96,0 6.48,-0.6 2.64,-0.72 4.2,-1.8 1.56,-1.2 2.16,-2.76 0.6,-1.56 0.6,-3.48 0,-4.08 -3.84,-6.72 -3.84,-2.76 -13.2,-5.88 -4.08,-1.44 -8.16,-3.24 -4.08,-1.92 -7.32,-4.68 -3.24,-2.88 -5.28,-6.84 -2.04,-4.08 -2.04,-9.84 0,-5.76 2.16,-10.32 2.16,-4.68 6.12,-7.92 3.96,-3.24 9.6,-4.92 5.64,-1.8 12.72,-1.8 8.4,0 14.52,1.8 6.12,1.8 10.08,3.96 l -5.4,14.76 q -3.48,-1.8 -7.8,-3.12 -4.2,-1.44 -10.2,-1.44 -6.72,0 -9.72,1.92 -2.88,1.8 -2.88,5.64 0,2.28 1.08,3.84 1.08,1.56 3,2.88 2.04,1.2 4.56,2.28 2.64,0.96 5.76,2.04 6.48,2.4 11.28,4.8 4.8,2.28 7.92,5.4 3.24,3.12 4.8,7.32 1.56,4.2 1.56,10.2 0,11.64 -8.16,18.12 -8.16,6.36 -24.6,6.36 -5.52,0 -9.96,-0.72 -4.44,-0.6 -7.92,-1.56 -3.36,-0.96 -5.88,-2.04 -2.4,-1.08 -4.08,-2.04 l 5.28,-14.88 q 3.72,2.04 9.12,3.72 5.52,1.56 13.44,1.56 z"
         id="path2991-2"
         style="font-weight:bold;font-size:120px;font-family:Ubuntu;text-anchor:middle;fill:#00ff00" />
      <path
         d="m 231.94638,252.66435 q 3.96,0 6.48,-0.6 2.64,-0.72 4.2,-1.8 1.56,-1.2 2.16,-2.76 0.6,-1.56 0.6,-3.48 0,-4.08 -3.84,-6.72 -3.84,-2.76 -13.2,-5.88 -4.08,-1.44 -8.16,-3.24 -4.08,-1.92 -7.32,-4.68 -3.24,-2.88 -5.28,-6.84 -2.04,-4.08 -2.04,-9.84 0,-5.76 2.16,-10.32 2.16,-4.68 6.12,-7.92 3.96,-3.24 9.6,-4.92 5.64,-1.8 12.72,-1.8 8.4,0 14.52,1.8 6.12,1.8 10.08,3.96 l -5.4,14.76 q -3.48,-1.8 -7.8,-3.12 -4.2,-1.44 -10.2,-1.44 -6.72,0 -9.72,1.92 -2.88,1.8 -2.88,5.64 0,2.28 1.08,3.84 1.08,1.56 3,2.88 2.04,1.2 4.56,2.28 2.64,0.96 5.76,2.04 6.48,2.4 11.28,4.8 4.8,2.28 7.92,5.4 3.24,3.12 4.8,7.32 1.56,4.2 1.56,10.2 0,11.64 -8.16,18.12 -8.16,6.36 -24.6,6.36 -5.52,0 -9.96,-0.72 -4.44,-0.6 -7.92,-1.56 -3.36,-0.96 -5.88,-2.04 -2.4,-1.08 -4.08,-2.04 l 5.28,-14.88 q 3.72,2.04 9.12,3.72 5.52,1.56 13.44,1.56 z"
         id="path2991-8"
         style="font-weight:bold;font-size:120px;font-family:Ubuntu;text-anchor:middle;fill:#00ff00" />
    </g>
    <g
       inkscape:groupmode="layer"
       id="layer3"
       style="display:inline;filter:url(#filter4346)"
       inkscape:label="Ebene 3">
      <rect
         style="display:inline;fill:#806500;fill-opacity:1;stroke-width:0.361053;filter:url(#filter4346)"
         id="rect3855-7-5-6-2"
         width="120"
         height="120"
         x="22.32835"
         y="22.328321"
         rx="12"
         ry="12" />
      <rect
         style="display:inline;fill:#997b00;fill-opacity:1;stroke-width:0.361053;filter:url(#filter4346)"
         id="rect3855-7-5-6"
         width="120"
         height="120"
         x="21.746267"
         y="21.746244"
         rx="12"
         ry="12" />
      <rect
         style="display:inline;fill:#b29000;fill-opacity:1;stroke-width:0.361053;filter:url(#filter4346)"
         id="rect3855-7-5"
         width="120"
         height="120"
         x="21.164183"
         y="21.164165"
         rx="12"
         ry="12" />
      <rect
         style="display:inline;fill:#cca400;fill-opacity:1;stroke-width:0.361053;filter:url(#filter4346)"
         id="rect3855-7"
         width="120"
         height="120"
         x="20.58209"
         y="20.582083"
         rx="12"
         ry="12" />
    </g>
    <g
       inkscape:label="Ebene 1"
       inkscape:groupmode="layer"
       id="layer1"
       style="display:inline">
      <path
         id="rect3855"
         style="opacity:1;fill:#ffcc00;stroke-width:0.361053"
         d="m 32,20 h 96 c 6.648,0 12,5.352 12,12 v 96 c 0,6.648 -5.352,12 -12,12 H 32 c -6.648,0 -12,-5.352 -12,-12 V 32 c 0,-6.648 5.352,-12 12,-12 z" />
      <path
         id="path14096"
         style="font-weight:bold;font-size:120px;font-family:Ubuntu;text-anchor:middle;fill:#000000;stroke-width:3.43593;fill-opacity:0.14869902"
         d="M 284.50391 124.31641 C 264.71293 124.31641 246.02167 127.61394 228.42969 134.21094 C 211.11258 140.80793 195.99333 150.56722 183.07422 163.48633 C 170.15511 176.13057 159.98412 191.66153 152.5625 210.07812 C 145.14088 228.49473 141.43164 249.66012 141.43164 273.57422 C 141.43164 297.21345 144.72918 318.23964 151.32617 336.65625 C 158.19804 355.07286 167.81814 370.60381 180.1875 383.24805 C 181.86112 384.95886 183.58541 386.60888 185.34961 388.20898 C 185.7722 388.6033 186.19514 388.99696 186.62305 389.38477 C 187.02149 389.75623 187.41909 390.12846 187.82227 390.49414 C 188.23678 390.8809 188.65263 391.26599 189.07227 391.64648 C 189.49355 392.03941 189.91522 392.4319 190.3418 392.81836 C 190.7272 393.17747 191.11213 393.53693 191.50195 393.89062 C 191.93081 394.29084 192.36058 394.69047 192.79492 395.08398 C 193.16678 395.43046 193.53809 395.7777 193.91406 396.11914 C 194.36816 396.54324 194.82295 396.96623 195.2832 397.38281 C 195.66005 397.73356 196.03689 398.08411 196.41797 398.42969 C 196.80888 398.79421 197.19829 399.16058 197.59375 399.51953 C 198.03204 399.92858 198.47199 400.33623 198.91602 400.73828 C 199.30318 401.09871 199.69041 401.45948 200.08203 401.81445 C 200.46095 402.16755 200.83946 402.52127 201.22266 402.86914 C 201.63506 403.25404 202.04736 403.63888 202.46484 404.01758 C 202.86805 404.39356 203.27163 404.76861 203.67969 405.13867 C 204.08155 405.51329 204.48396 405.88712 204.89062 406.25586 C 205.28567 406.62402 205.68039 406.99299 206.08008 407.35547 C 206.47824 407.7266 206.87641 408.09753 207.2793 408.46289 C 207.68363 408.83975 208.08884 409.21504 208.49805 409.58594 C 208.87969 409.94142 209.26051 410.29825 209.64648 410.64844 C 210.05091 411.0255 210.45593 411.40234 210.86523 411.77344 C 211.26079 412.14197 211.65642 412.51021 212.05664 412.87305 C 212.44307 413.233 212.82983 413.59274 213.2207 413.94727 C 213.61514 414.31485 214.00913 414.683 214.4082 415.04492 C 214.81012 415.41941 215.21241 415.7935 215.61914 416.16211 C 215.99688 416.51378 216.37388 416.86641 216.75586 417.21289 C 217.14093 417.57171 217.52652 417.92978 217.91602 418.2832 C 218.30224 418.6432 218.68746 419.00481 219.07812 419.35938 C 219.50323 419.75566 219.92889 420.1513 220.35938 420.54102 C 220.71448 420.8712 221.06887 421.20174 221.42773 421.52734 C 221.80085 421.87503 222.17352 422.22378 222.55078 422.56641 C 222.95849 422.94668 223.36663 423.32696 223.7793 423.70117 C 224.1486 424.04508 224.51727 424.38957 224.89062 424.72852 C 225.30826 425.11784 225.72756 425.5057 226.15039 425.88867 C 226.50876 426.22195 226.86633 426.55615 227.22852 426.88477 C 227.61603 427.24577 228.00254 427.60735 228.39453 427.96289 C 228.77833 428.32029 229.1626 428.67726 229.55078 429.0293 C 229.92644 429.37905 230.30178 429.7296 230.68164 430.07422 C 231.05595 430.42282 231.43012 430.77173 231.80859 431.11523 C 232.2115 431.4906 232.6157 431.86492 233.02344 432.23438 C 233.37464 432.56101 233.72521 432.88877 234.08008 433.21094 C 234.47427 433.57824 234.86876 433.94499 235.26758 434.30664 C 235.62375 434.63813 235.97795 434.97195 236.33789 435.29883 C 236.746 435.67919 237.15528 436.05734 237.56836 436.43164 C 237.895 436.73537 238.21902 437.04194 238.54883 437.3418 C 238.9738 437.73829 239.39972 438.13353 239.83008 438.52344 C 240.17537 438.84445 240.5203 439.16574 240.86914 439.48242 C 241.25051 439.83766 241.63188 440.19302 242.01758 440.54297 C 242.38865 440.88839 242.75959 441.23381 243.13477 441.57422 C 243.49772 441.91208 243.85969 442.25091 244.22656 442.58398 C 244.61027 442.94136 244.99472 443.29838 245.38281 443.65039 C 245.762 444.0032 246.14193 444.35555 246.52539 444.70312 C 246.87239 445.02576 247.21778 445.34971 247.56836 445.66797 C 247.93938 446.01344 248.31043 446.35876 248.68555 446.69922 C 249.03933 447.02856 249.39249 447.35881 249.75 447.68359 C 250.13102 448.03859 250.51114 448.39443 250.89648 448.74414 C 251.26376 449.08598 251.63066 449.42871 252.00195 449.76562 C 252.37604 450.11373 252.75066 450.46167 253.12891 450.80469 C 253.48125 451.13233 253.83342 451.46007 254.18945 451.7832 C 254.54711 452.11604 254.90417 452.44915 255.26562 452.77734 C 255.64808 453.13338 256.03116 453.48913 256.41797 453.83984 C 256.75682 454.15482 257.09523 454.47045 257.4375 454.78125 C 257.79774 455.11662 258.15738 455.45255 258.52148 455.7832 C 258.88106 456.11794 259.24009 456.45317 259.60352 456.7832 C 259.99188 457.14473 260.38059 457.50528 260.77344 457.86133 C 261.07358 458.14014 261.37101 458.42172 261.67383 458.69727 C 262.08863 459.08413 262.5039 459.47096 262.92383 459.85156 C 263.248 460.15268 263.5731 460.4527 263.90039 460.75 C 264.26931 461.09343 264.6368 461.43886 265.00977 461.77734 C 265.37789 462.11971 265.74699 462.46139 266.11914 462.79883 C 266.44793 463.10431 266.77543 463.41134 267.10742 463.71289 C 267.47211 464.0523 267.83643 464.39199 268.20508 464.72656 C 268.53681 465.03504 268.86813 465.34396 269.20312 465.64844 C 269.59293 466.01143 269.98262 466.37496 270.37695 466.73242 C 270.68819 467.02146 270.99839 467.31213 271.3125 467.59766 C 271.68858 467.94786 272.06502 468.29752 272.44531 468.64258 C 272.78252 468.95599 273.1184 469.27079 273.45898 469.58008 C 273.81195 469.9084 274.16481 470.23676 274.52148 470.56055 C 274.88157 470.89537 275.24152 471.23043 275.60547 471.56055 C 275.92927 471.86135 276.25316 472.16199 276.58008 472.45898 C 276.93965 472.79354 277.29869 473.12913 277.66211 473.45898 C 277.9942 473.76765 278.32479 474.07815 278.66016 474.38281 C 278.99618 474.69541 279.33249 475.00792 279.67188 475.31641 C 280.03946 475.65855 280.40572 476.00261 280.77734 476.33984 C 281.12978 476.6673 281.48372 476.99346 281.83984 477.31641 C 282.15081 477.60512 282.4596 477.89643 282.77344 478.18164 C 283.1256 478.50929 283.47814 478.83702 283.83398 479.16016 C 284.17175 479.47414 284.50845 479.78977 284.84961 480.09961 C 285.18506 480.41149 285.52078 480.72319 285.85938 481.03125 L 439.79883 481.03125 C 462.64092 481.03125 481.03125 462.64092 481.03125 439.79883 L 481.03125 240.39258 C 480.96247 240.35293 480.90118 240.31643 480.83398 240.27734 L 480.93555 239.99609 C 480.61743 239.79727 480.19781 239.56168 479.81641 239.33984 L 479.91797 239.05469 C 479.59895 238.8553 479.17952 238.61901 478.79688 238.39648 L 478.89844 238.11133 C 478.57804 237.91108 478.15607 237.67476 477.77148 237.45117 L 477.875 237.16602 C 477.55353 236.9651 477.13023 236.72832 476.74414 236.50391 L 476.84766 236.21875 C 476.52609 236.01777 476.10302 235.77918 475.7168 235.55469 L 475.82031 235.26758 C 475.49777 235.06599 475.07313 234.82876 474.68555 234.60352 L 474.78906 234.31641 C 474.46536 234.11409 474.03962 233.87458 473.65039 233.64844 L 473.75391 233.36133 C 473.4294 233.15851 473.00363 232.92012 472.61328 232.69336 L 472.7168 232.40625 C 472.39202 232.20327 471.96495 231.9633 471.57422 231.73633 L 471.67969 231.44531 C 471.35411 231.24183 470.92701 231.00102 470.53516 230.77344 L 470.63867 230.48438 C 470.31203 230.28022 469.88359 230.03896 469.49023 229.81055 L 469.59375 229.52148 C 469.2666 229.31701 468.83744 229.07451 468.44336 228.8457 L 468.54883 228.55469 C 468.22087 228.34971 467.7917 228.10834 467.39648 227.87891 L 467.50195 227.58789 C 467.17266 227.38208 466.74084 227.13867 466.34375 226.9082 L 466.44922 226.61719 C 466.11902 226.41082 465.68743 226.16671 465.28906 225.93555 L 465.39453 225.64453 C 465.06434 225.43816 464.63273 225.19405 464.23438 224.96289 L 464.33984 224.66797 C 464.00843 224.46084 463.57587 224.21647 463.17578 223.98438 L 463.28125 223.69141 C 462.94933 223.48396 462.51604 223.23836 462.11523 223.00586 L 462.2207 222.71094 C 461.88847 222.50329 461.45398 222.25813 461.05273 222.02539 L 461.1582 221.73047 C 460.8248 221.52209 460.38924 221.27662 459.98633 221.04297 L 460.09375 220.74609 C 459.75953 220.53721 459.32204 220.29093 458.91797 220.05664 L 459.02539 219.75977 C 458.6901 219.55021 458.25129 219.30348 457.8457 219.06836 L 457.95312 218.76953 C 457.6177 218.55988 457.17923 218.31336 456.77344 218.07812 L 456.88086 217.7793 C 456.54426 217.56892 456.10471 217.32012 455.69727 217.08398 L 455.80469 216.78516 C 455.46727 216.57427 455.02774 216.32661 454.61914 216.08984 L 454.72656 215.79102 C 454.38824 215.57956 453.94701 215.32928 453.53711 215.0918 L 453.64453 214.79297 C 453.30579 214.58126 452.86361 214.33155 452.45312 214.09375 L 452.5625 213.79102 C 452.22279 213.57869 451.77906 213.33036 451.36719 213.0918 L 451.47656 212.78906 C 451.13578 212.57607 450.69074 212.32729 450.27734 212.08789 L 450.38672 211.78516 C 450.04584 211.57211 449.60103 211.3215 449.1875 211.08203 L 449.29688 210.77734 C 448.95494 210.56363 448.51075 210.31256 448.0957 210.07227 L 448.20508 209.76758 C 447.86233 209.55336 447.41621 209.30148 447 209.06055 L 447.10938 208.75586 C 446.76621 208.54138 446.31914 208.29008 445.90234 208.04883 L 446.01367 207.74219 C 445.66878 207.52663 445.22004 207.27385 444.80078 207.03125 L 444.91016 206.72656 C 444.56477 206.51069 444.1153 206.25667 443.69531 206.01367 L 443.80664 205.70703 C 443.46084 205.4909 443.01237 205.23746 442.5918 204.99414 L 442.70312 204.6875 C 442.35576 204.47039 441.90525 204.21525 441.48242 203.9707 L 441.59375 203.66406 C 441.24622 203.44686 440.79609 203.19193 440.37305 202.94727 L 440.48438 202.63867 C 440.13619 202.42106 439.68375 202.1651 439.25977 201.91992 L 439.37109 201.61133 C 439.02291 201.39371 438.57047 201.13776 438.14648 200.89258 L 438.25781 200.58203 C 437.90749 200.36308 437.45245 200.10622 437.02539 199.85938 L 437.13672 199.54883 C 436.78598 199.32962 436.33196 199.07335 435.9043 198.82617 L 436.01758 198.51367 C 435.66603 198.29396 435.21007 198.03688 434.78125 197.78906 L 434.89453 197.47656 C 434.54257 197.25659 434.08566 197.00009 433.65625 196.75195 L 433.76953 196.4375 C 433.41665 196.21695 432.96004 195.9598 432.5293 195.71094 L 432.64258 195.39648 C 432.28904 195.17553 431.83208 194.91735 431.40039 194.66797 L 431.51367 194.35352 C 431.15884 194.13174 430.69919 193.87149 430.26562 193.62109 L 430.37891 193.30664 C 430.0243 193.08501 429.56604 192.82639 429.13281 192.57617 L 429.24609 192.25977 C 428.89019 192.03733 428.42925 191.77663 427.99414 191.52539 L 428.10742 191.20898 C 427.75059 190.98597 427.28996 190.72462 426.85352 190.47266 L 426.9668 190.15625 C 426.6089 189.93256 426.14697 189.67078 425.70898 189.41797 L 425.82227 189.10156 C 425.46437 188.87788 425.00244 188.61609 424.56445 188.36328 L 424.67969 188.04297 C 424.32042 187.81843 423.85599 187.55663 423.41602 187.30273 L 423.53125 186.98438 C 423.17163 186.75961 422.70807 186.49636 422.26758 186.24219 L 422.38281 185.92188 C 422.02146 185.69603 421.55627 185.43131 421.11328 185.17578 L 421.22852 184.85742 C 420.86725 184.63163 420.40186 184.36875 419.95898 184.11328 L 420.07422 183.79102 C 419.7118 183.5645 419.24533 183.29934 418.80078 183.04297 L 418.91602 182.72266 C 418.5536 182.49615 418.08712 182.23099 417.64258 181.97461 L 417.75977 181.65039 C 417.39557 181.42277 416.92565 181.15818 416.47852 180.90039 L 416.59375 180.57812 C 416.22919 180.35029 415.76016 180.08424 415.3125 179.82617 L 415.42969 179.50195 C 415.06541 179.27428 414.5957 179.00785 414.14844 178.75 L 414.26562 178.42383 C 413.89905 178.19472 413.42717 177.92764 412.97656 177.66797 L 413.09375 177.34375 C 412.72717 177.11464 412.25529 176.84756 411.80469 176.58789 L 411.92188 176.26172 C 411.55415 176.03189 411.08119 175.76253 410.62891 175.50195 L 410.74609 175.17578 C 410.37751 174.94542 409.9047 174.67727 409.45117 174.41602 L 409.56836 174.08984 C 409.19956 173.85934 408.72533 173.58955 408.27148 173.32812 L 408.38867 173 C 408.01861 172.76871 407.54359 172.50071 407.08789 172.23828 L 407.20703 171.9082 C 406.83623 171.67645 406.36107 171.40559 405.9043 171.14258 L 406.02148 170.81445 C 405.65011 170.58234 405.17442 170.3123 404.7168 170.04883 L 404.83594 169.71875 C 404.46407 169.48633 403.98764 169.21503 403.5293 168.95117 L 403.64844 168.61914 C 403.2752 168.38587 402.79628 168.11456 402.33594 167.84961 L 402.45508 167.51953 C 402.08107 167.28578 401.6021 167.01361 401.14062 166.74805 L 401.25977 166.41602 C 400.88604 166.18244 400.40638 165.90987 399.94531 165.64453 L 400.06445 165.31055 C 399.68966 165.0763 399.20872 164.8033 398.74609 164.53711 L 398.86523 164.20312 C 398.48871 163.96781 398.00618 163.69334 397.54102 163.42578 L 397.66211 163.0918 C 397.28473 162.85593 396.80237 162.5827 396.33594 162.31445 L 396.45703 161.98047 C 396.07944 161.74448 395.59564 161.46958 395.12891 161.20117 L 395.25 160.86523 C 394.87155 160.6287 394.38793 160.35504 393.91992 160.08594 L 394.04102 159.75 C 393.6617 159.51293 393.17631 159.23658 392.70703 158.9668 L 392.82812 158.63086 C 392.44841 158.39353 391.96207 158.11777 391.49219 157.84766 L 391.61523 157.50781 C 391.23469 157.26997 390.74844 156.99343 390.27734 156.72266 L 390.39844 156.38477 C 390.01695 156.14633 389.53109 155.86918 389.05859 155.59766 L 389.17969 155.25977 C 388.79693 155.02054 388.30835 154.74129 387.83398 154.46875 L 387.95508 154.13086 C 387.57203 153.89145 387.08416 153.61261 386.60938 153.33984 L 386.73242 153 C 386.34838 152.75997 385.85908 152.48255 385.38281 152.20898 L 385.50586 151.86719 C 385.12103 151.62667 384.62977 151.34841 384.15234 151.07422 L 384.27539 150.73242 C 383.8902 150.49168 383.39982 150.21198 382.92188 149.9375 L 383.04492 149.5957 C 382.65908 149.35455 382.16838 149.07383 381.68945 148.79883 L 381.8125 148.45508 C 381.42554 148.21323 380.93176 147.9341 380.45117 147.6582 L 380.57617 147.3125 C 380.18814 147.06998 379.69312 146.79043 379.21094 146.51367 L 379.33594 146.16797 C 377.13694 144.7936 373.42574 142.87036 368.20312 140.39648 C 363.25539 137.92261 356.79559 135.58572 348.82422 133.38672 C 341.12773 130.91285 331.7821 128.85237 320.78711 127.20312 C 310.06699 125.27901 297.97277 124.31641 284.50391 124.31641 z "
         transform="scale(0.29104166)" />
      <g
         aria-label="G"
         id="text62"
         style="font-weight:bold;font-size:120px;font-family:Ubuntu;text-anchor:middle;fill:#ffffff">
        <path
           d="m 85.04002,52.24 q -13.08,0 -18.96,7.32 -5.76,7.2 -5.76,19.8 0,6.12 1.44,11.16 1.44,4.92 4.32,8.52 2.88,3.6 7.2,5.64 4.32,1.92 10.08,1.92 3.12,0 5.28,-0.12 2.28,-0.12 3.96,-0.48 V 77.08 h 18.72 v 41.16 q -3.36,1.32 -10.8,2.76 -7.44,1.56 -18.36,1.56 -9.36,0 -17.04,-2.88 -7.56,-2.88 -12.96,-8.4 -5.4,-5.52 -8.4,-13.56 -2.88,-8.04 -2.88,-18.36 0,-10.44 3.24,-18.48 3.24,-8.04 8.88,-13.56 5.64,-5.64 13.2,-8.52 7.68,-2.88 16.32,-2.88 5.88,0 10.56,0.84 4.8,0.72 8.16,1.8 3.48,0.96 5.64,2.04 2.28,1.08 3.24,1.68 l -5.4,15 q -3.84,-2.04 -8.88,-3.48 -4.92,-1.56 -10.8,-1.56 z"
           id="path67" />
      </g>
    </g>
  </g>
</svg>
