<?xml version="1.0" encoding="UTF-8" standalone="no"?>
<!-- Created with Inkscape (http://www.inkscape.org/) -->

<svg
   width="256"
   height="256"
   viewBox="0 0 67.733332 67.733333"
   version="1.1"
   id="svg1"
   xmlns="http://www.w3.org/2000/svg"
   xmlns:svg="http://www.w3.org/2000/svg">
  <defs
     id="defs1">
    <rect
       x="31.479816"
       y="31.479816"
       width="200.68383"
       height="189.53472"
       id="rect2" />
  </defs>
  <g
     id="layer1">
    <path
       id="rect1"
       style="display:inline;fill:#000000;fill-opacity:1;stroke-width:0.189277"
       d="M 11.069609 2.1166667 A 8.9528233 8.9528233 0 0 0 2.1166667 11.069609 L 2.1166667 56.663725 A 8.9528233 8.9528233 0 0 0 11.069609 65.616667 L 56.663725 65.616667 A 8.9528233 8.9528233 0 0 0 65.616667 56.663725 L 65.616667 11.069609 A 8.9528233 8.9528233 0 0 0 56.663725 2.1166667 L 11.069609 2.1166667 z M 23.438363 14.562935 L 29.026652 14.562935 L 29.026652 53.170398 L 21.632271 53.170398 L 21.632271 24.214543 L 15.818673 28.447876 L 12.093319 22.746932 L 23.438363 14.562935 z M 47.935575 14.562935 L 53.523348 14.562935 L 53.523348 53.170398 L 46.128967 53.170398 L 46.128967 24.214543 L 40.315369 28.447876 L 36.590015 22.746932 L 47.935575 14.562935 z " />
  </g>
</svg>
