<!--
  - GSApp3 (https://github.com/libf-de/GSApp3)
  - Copyright (C) 2023. Fabian Schillig
  -
  - This program is free software: you can redistribute it and/or modify
  - it under the terms of the GNU General Public License as published by
  - the Free Software Foundation, either version 3 of the License, or
  - (at your option) any later version.
  -
  - This program is distributed in the hope that it will be useful,
  - but WITHOUT ANY WARRANTY; without even the implied warranty of
  - MERCHANTABILITY or FITNESS FOR A PARTICULAR PURPOSE.  See the
  - GNU General Public License for more details.
  -
  - You should have received a copy of the GNU General Public License
  - along with this program.  If not, see <http://www.gnu.org/licenses/>.
  -->

<svg xmlns="http://www.w3.org/2000/svg" height="24" viewBox="0 -960 960 960" width="24"><path d="m499-287 335-335-52-52-335 335 52 52Zm-379-62q0 29 20 45t66 21q16 2 25.5 14.5T240-240q-1 17-12 28t-27 9q-81-10-121-46.5T40-349q0-65 53.5-105.5T242-503q39-3 58.5-12.5T320-542q0-22-21-34.5T230-596q-16-2-25.5-15t-7.5-29q2-17 14-27.5t28-8.5q83 12 122 44.5t39 89.5q0 53-38.5 83T248-423q-64 5-96 23.5T120-349Zm398 156L353-358l382-382q20-20 47.5-20t47.5 20l70 70q20 20 20 47.5T900-575L518-193Zm-159 33q-17 4-30-9t-9-30l33-159 165 165-159 33Z"/></svg>