<?xml version="1.0" encoding="UTF-8" standalone="no"?>
<svg
   height="24"
   viewBox="0 -960 960 960"
   width="24"
   version="1.1"
   id="svg1"
   sodipodi:docname="class_lesson.svg"
   inkscape:version="1.3 (0e150ed, 2023-07-21)"
   xmlns:inkscape="http://www.inkscape.org/namespaces/inkscape"
   xmlns:sodipodi="http://sodipodi.sourceforge.net/DTD/sodipodi-0.dtd"
   xmlns="http://www.w3.org/2000/svg"
   xmlns:svg="http://www.w3.org/2000/svg">
  <defs
     id="defs1">
    <inkscape:path-effect
       effect="fillet_chamfer"
       id="path-effect4"
       is_visible="true"
       lpeversion="1"
       nodesatellites_param="F,0,1,1,0,5.132813,0,1 @ F,0,0,1,0,0,0,1 @ F,0,0,1,0,0,0,1 @ F,0,0,1,0,0,0,1 @ F,0,0,1,0,0,0,1 @ F,0,0,1,0,0,0,1 @ F,0,0,1,0,0,0,1 @ F,0,0,1,0,0,0,1 @ F,0,0,1,0,0,0,1 @ F,0,0,1,0,0,0,1 @ F,0,0,1,0,0,0,1 @ F,0,0,1,0,0,0,1 @ F,0,0,1,0,0,0,1 @ F,0,0,1,0,0,0,1 @ F,0,0,1,0,0,0,1 @ F,0,0,1,0,0,0,1 @ F,0,0,1,0,0,0,1 @ F,0,0,1,0,0,0,1 @ F,0,0,1,0,0,0,1 @ F,0,0,1,0,0,0,1 @ F,0,0,1,0,5.132813,0,1 @ F,0,1,1,0,5.132813,0,1 @ F,0,0,1,0,0,0,1 @ F,0,1,1,0,5.132813,0,1"
       radius="0"
       unit="px"
       method="auto"
       mode="F"
       chamfer_steps="1"
       flexible="false"
       use_knot_distance="true"
       apply_no_radius="true"
       apply_with_radius="true"
       only_selected="false"
       hide_knots="false" />
    <inkscape:path-effect
       effect="fillet_chamfer"
       id="path-effect3"
       is_visible="true"
       lpeversion="1"
       nodesatellites_param="F,0,0,1,0,14.395182,0,1 @ F,0,0,1,0,14.395182,0,1 @ F,0,0,1,0,0,0,1 @ F,0,0,1,0,0,0,1 @ F,0,0,1,0,0,0,1 @ F,0,0,1,0,14.395182,0,1 @ F,0,0,1,0,14.395182,0,1 @ F,0,0,1,0,0,0,1 @ F,0,0,1,0,0,0,1 @ F,0,0,1,0,0,0,1 @ F,0,0,1,0,0,0,1 @ F,0,0,1,0,0,0,1 @ F,0,0,1,0,0,0,1 @ F,0,0,1,0,0,0,1 | F,0,0,1,0,9.2557937,0,1 @ F,0,0,1,0,9.6581956,0,1 @ F,0,0,1,0,0,0,1 @ F,0,0,1,0,0,0,1 @ F,0,0,1,0,0,0,1 @ F,0,0,1,0,0,0,1 @ F,0,0,1,0,0,0,1 @ F,0,0,1,0,0,0,1 @ F,0,0,1,0,0,0,1 @ F,0,0,1,0,0,0,1"
       radius="0"
       unit="px"
       method="auto"
       mode="F"
       chamfer_steps="1"
       flexible="false"
       use_knot_distance="true"
       apply_no_radius="true"
       apply_with_radius="true"
       only_selected="false"
       hide_knots="false" />
  </defs>
  <sodipodi:namedview
     id="namedview1"
     pagecolor="#ffffff"
     bordercolor="#000000"
     borderopacity="0.25"
     inkscape:showpageshadow="2"
     inkscape:pageopacity="0.0"
     inkscape:pagecheckerboard="0"
     inkscape:deskcolor="#d1d1d1"
     inkscape:zoom="20.105216"
     inkscape:cx="11.763117"
     inkscape:cy="13.628304"
     inkscape:window-width="1392"
     inkscape:window-height="945"
     inkscape:window-x="0"
     inkscape:window-y="25"
     inkscape:window-maximized="0"
     inkscape:current-layer="svg1" />
  <path
     id="path1"
     d="m 474.87079,-828.81814 c -4.89266,0.31895 -9.70185,1.09687 -14.40204,2.33376 -6.33333,1.66667 -12.43751,4.16667 -18.4375,7.5 L 103.98438,-635 c -7.333331,4 -12.6823,9.00001 -16.01563,15 -3.33333,5.99999 -5,12.66667 -5,20 0,7.33333 1.66667,14.00001 5,20 3.33333,5.99999 8.682299,11 16.01563,15 L 200,-512.03125 V -320 c 0,15.33332 3.6823,29.15105 11.01562,41.48438 7.33333,12.33332 17.68231,22.19792 31.01563,29.53124 l 200,107.96876 c 5.99999,3.33333 12.10417,5.83333 18.4375,7.5 6.33333,1.66666 12.86459,2.5 19.53125,2.5 v -80 L 280,-318.98438 V -470 l 161.01562,88.98438 c 6,3.33332 12.31772,5.83333 18.98438,7.5 4.95689,1.23922 9.9138,2.01774 14.8707,2.33556 2.82848,0.18136 5.1293,-2.1336 5.1293,-4.96837 v -70.75001 a 8.6055631,8.6055631 59.185914 0 0 -4.51627,-7.57188 L 206.01562,-600 475.48373,-745.52968 A 8.6055631,8.6055631 120.81409 0 0 480,-753.10156 v -70.75001 c 0,-2.83477 -2.30094,-5.15095 -5.12921,-4.96657 z"
     inkscape:path-effect="#path-effect4"
     inkscape:original-d="m 480,-828.98438 c -6.66666,0 -13.19792,0.83334 -19.53125,2.5 -6.33333,1.66667 -12.43751,4.16667 -18.4375,7.5 L 103.98438,-635 c -7.333331,4 -12.6823,9.00001 -16.01563,15 -3.33333,5.99999 -5,12.66667 -5,20 0,7.33333 1.66667,14.00001 5,20 3.33333,5.99999 8.682299,11 16.01563,15 L 200,-512.03125 V -320 c 0,15.33332 3.6823,29.15105 11.01562,41.48438 7.33333,12.33332 17.68231,22.19792 31.01563,29.53124 l 200,107.96876 c 5.99999,3.33333 12.10417,5.83333 18.4375,7.5 6.33333,1.66666 12.86459,2.5 19.53125,2.5 v -80 L 280,-318.98438 V -470 l 161.01562,88.98438 c 6,3.33332 12.31772,5.83333 18.98438,7.5 6.66666,1.66666 13.33334,2.5 20,2.5 v -81.01563 L 206.01562,-600 480,-747.96875 Z"
     transform="translate(-32.00875)" />
  <path
     id="path1-1"
     d="m 480,-865.60482 v 51.20964 c 0,7.95024 6.44788,14.36372 14.39158,14.6735 82.47064,3.21611 153.15955,34.30406 212.0928,93.2373 C 768.81765,-644.1511 800,-568.66658 800,-480 c 0,88.66658 -31.18235,164.1511 -93.51562,226.48438 -58.93325,58.93324 -129.62216,90.02119 -212.0928,93.2373 -7.9437,0.30978 -14.39158,6.72326 -14.39158,14.6735 v 51.209638 c 0,7.950239 6.44709,14.421464 14.39253,14.156228 49.98245,-1.668519 97.19815,-12.075755 141.62309,-31.245426 48.66662,-20.99997 90.95317,-49.54691 126.95313,-85.54687 35.99996,-35.99996 64.5469,-78.28651 85.54687,-126.95313 C 869.5156,-372.65099 880,-424.66672 880,-480 c 0,-55.33328 -10.4844,-107.34901 -31.48438,-156.01562 -20.99997,-48.66662 -49.54691,-90.95317 -85.54687,-126.95313 -35.99996,-35.99996 -78.28651,-64.5469 -126.95313,-85.54687 -44.42494,-19.16967 -91.64064,-29.57691 -141.62308,-31.24543 C 486.44709,-880.02628 480,-873.55506 480,-865.60482 Z m 0,194.86061 0,237.02351 a 23.329334,23.329334 67.510757 0 0 6.82681,16.49014 L 583.98438,-320 c 7.33332,7.33333 16.71355,11.01562 28.04687,11.01562 11.33332,0 20.63542,-3.68229 27.96875,-11.01562 7.33333,-7.33333 11.01563,-16.63543 11.01562,-27.96875 0,-11.33332 -3.68229,-20.71355 -11.01562,-28.04687 l -120,-120 V -640 c 0,-11.33332 -3.81772,-20.84897 -11.48438,-28.51562 -5.49482,-5.49482 -11.93943,-9.01251 -19.32231,-10.56456 -4.99353,-1.04975 -9.19331,3.22414 -9.19331,8.33597 z"
     inkscape:path-effect="#path-effect3"
     inkscape:original-d="m 480,-880 v 80 c 88.66658,0 164.1511,31.18235 226.48438,93.51562 C 768.81765,-644.1511 800,-568.66658 800,-480 c 0,88.66658 -31.18235,164.1511 -93.51562,226.48438 C 644.1511,-191.18235 568.66658,-160 480,-160 v 80 c 55.33328,0 107.34901,-10.4844 156.01562,-31.48438 48.66662,-20.99997 90.95317,-49.54691 126.95313,-85.54687 35.99996,-35.99996 64.5469,-78.28651 85.54687,-126.95313 C 869.5156,-372.65099 880,-424.66672 880,-480 c 0,-55.33328 -10.4844,-107.34901 -31.48438,-156.01562 -20.99997,-48.66662 -49.54691,-90.95317 -85.54687,-126.95313 -35.99996,-35.99996 -78.28651,-64.5469 -126.95313,-85.54687 C 587.34901,-869.5156 535.33328,-880 480,-880 Z m 0,200 v 255.9375 L 583.98438,-320 c 7.33332,7.33333 16.71355,11.01562 28.04687,11.01562 11.33332,0 20.63542,-3.68229 27.96875,-11.01562 7.33333,-7.33333 11.01563,-16.63543 11.01562,-27.96875 0,-11.33332 -3.68229,-20.71355 -11.01562,-28.04687 l -120,-120 V -640 c 0,-11.33332 -3.81772,-20.84897 -11.48438,-28.51562 C 500.84897,-676.18228 491.33332,-680 480,-680 Z"
     transform="translate(32)" />
</svg>
