<?xml version="1.0" encoding="UTF-8" standalone="no"?>
<!-- Created with Inkscape (http://www.inkscape.org/) -->

<svg
   width="256"
   height="256"
   viewBox="0 0 67.733332 67.733333"
   version="1.1"
   id="svg1"
   xmlns="http://www.w3.org/2000/svg"
   xmlns:svg="http://www.w3.org/2000/svg">
  <defs
     id="defs1">
    <rect
       x="31.479816"
       y="31.479816"
       width="200.68383"
       height="189.53472"
       id="rect2" />
  </defs>
  <g
     id="layer1">
    <path
       id="rect1"
       style="display:inline;fill:#000000;fill-opacity:1;stroke-width:0.189277"
       d="M 11.069609 2.1166667 A 8.9528233 8.9528233 0 0 0 2.1166667 11.069609 L 2.1166667 56.663725 A 8.9528233 8.9528233 0 0 0 11.069609 65.616667 L 56.663725 65.616667 A 8.9528233 8.9528233 0 0 0 65.616667 56.663725 L 65.616667 11.069609 A 8.9528233 8.9528233 0 0 0 56.663725 2.1166667 L 11.069609 2.1166667 z M 45.585848 14.111283 C 48.144658 14.111283 50.383643 14.619223 52.302751 15.635221 C 54.221859 16.61359 55.708282 17.968096 56.76191 19.699056 C 57.815538 21.392386 58.342175 23.292745 58.342175 25.4 C 58.342175 29.576882 56.310416 33.659615 52.246423 37.648348 C 50.590722 39.266419 47.523869 42.314574 43.045951 46.792493 L 43.214933 47.130973 L 58.850155 47.130973 L 58.850155 53.62205 L 33.224329 53.62205 L 33.224329 46.905147 L 40.392883 39.737109 C 43.967692 36.162301 46.263286 33.828794 47.279285 32.737537 C 48.633949 31.269984 49.555823 30.047396 50.045007 29.069027 C 50.571821 28.090658 50.83514 26.980256 50.83514 25.738481 C 50.83514 24.421446 50.345898 23.311561 49.367529 22.408451 C 48.389161 21.505342 47.091264 21.054012 45.473193 21.054012 C 43.892752 21.054012 42.613036 21.505342 41.634668 22.408451 C 40.656299 23.311561 39.960348 24.440661 39.546423 25.795325 L 32.885848 23.029085 C 33.299774 21.561533 34.052334 20.150933 35.143591 18.796269 C 36.272478 17.403975 37.721506 16.274876 39.490096 15.409395 C 41.258686 14.543916 43.290444 14.111283 45.585848 14.111283 z M 19.169889 15.014071 L 24.758179 15.014071 L 24.758179 53.62205 L 17.363798 53.62205 L 17.363798 24.666195 L 11.550199 28.899528 L 7.8248454 23.198584 L 19.169889 15.014071 z " />
  </g>
</svg>
