<?xml version="1.0" encoding="UTF-8" standalone="no"?>
<svg
   height="24"
   viewBox="0 -960 960 960"
   width="24"
   version="1.1"
   id="svg1"
   sodipodi:docname="original_subject_2.svg"
   inkscape:version="1.3 (0e150ed, 2023-07-21)"
   xmlns:inkscape="http://www.inkscape.org/namespaces/inkscape"
   xmlns:sodipodi="http://sodipodi.sourceforge.net/DTD/sodipodi-0.dtd"
   xmlns="http://www.w3.org/2000/svg"
   xmlns:svg="http://www.w3.org/2000/svg">
  <sodipodi:namedview
     id="namedview1"
     pagecolor="#ffffff"
     bordercolor="#000000"
     borderopacity="0.25"
     inkscape:showpageshadow="2"
     inkscape:pageopacity="0.0"
     inkscape:pagecheckerboard="0"
     inkscape:deskcolor="#d1d1d1"
     inkscape:zoom="27.331992"
     inkscape:cx="18.403342"
     inkscape:cy="8.1589369"
     inkscape:window-width="1392"
     inkscape:window-height="943"
     inkscape:window-x="-2"
     inkscape:window-y="27"
     inkscape:window-maximized="0"
     inkscape:current-layer="svg1" />
  <defs
     id="defs1">
    <inkscape:path-effect
       effect="fillet_chamfer"
       id="path-effect2"
       is_visible="true"
       lpeversion="1"
       nodesatellites_param="F,0,0,1,0,0,0,1 @ F,0,0,1,0,0,0,1 @ F,0,0,1,0,0,0,1 @ F,0,0,1,0,0,0,1 @ F,0,0,1,0,0,0,1 @ F,0,0,1,0,0,0,1 @ F,0,0,1,0,0,0,1 @ F,0,0,1,0,0,0,1 @ F,0,0,1,0,0,0,1 @ F,0,0,1,0,0,0,1 @ F,0,0,1,0,0,0,1 @ F,0,0,1,0,0,0,1 @ F,0,0,1,0,0,0,1 @ F,0,0,1,0,0,0,1 @ F,0,0,1,0,0,0,1 @ F,0,0,1,0,0,0,1 @ F,0,0,1,0,0,0,1 @ F,0,0,1,0,0,0,1 @ F,0,0,1,0,0,0,1 @ F,0,0,1,0,0,0,1 @ F,0,0,1,0,0,0,1 @ F,0,0,1,0,0,0,1 @ F,0,1,1,0,18.297022,0,1 @ F,0,0,1,0,18.297022,0,1 @ F,0,0,1,0,0,0,1 @ F,0,0,1,0,0,0,1 @ F,0,0,1,0,0,0,1 @ F,0,0,1,0,0,0,1 @ F,0,0,1,0,0,0,1 @ F,0,0,1,0,0,0,1 @ F,0,1,1,0,18.297022,0,1 @ F,0,0,1,0,0,0,1 @ F,0,0,1,0,0,0,1 | F,0,0,1,0,0,0,1 @ F,0,0,1,0,0,0,1 @ F,0,0,1,0,0,0,1 @ F,0,0,1,0,0,0,1 @ F,0,0,1,0,0,0,1 @ F,0,0,1,0,0,0,1 @ F,0,0,1,0,0,0,1 @ F,0,0,1,0,0,0,1 @ F,0,0,1,0,0,0,1 @ F,0,0,1,0,0,0,1"
       radius="0"
       unit="px"
       method="auto"
       mode="F"
       chamfer_steps="1"
       flexible="false"
       use_knot_distance="true"
       apply_no_radius="true"
       apply_with_radius="true"
       only_selected="false"
       hide_knots="false" />
  </defs>
  <path
     id="path1"
     d="m 260,-800 c -34.66663,0 -68.69795,4.03126 -102.03125,12.03125 -33.3333,7.99999 -65.270864,19.93752 -95.9375,35.9375 -7.333326,3.33333 -12.895837,8.33334 -16.5625,15 C 41.802087,-730.36459 40,-723.34895 40,-716.01562 v 482.03124 c 0,15.33332 6.531263,27.00001 19.53125,35 12.999987,8 26.468764,8.34896 40.46875,1.01563 24.66664,-13.33332 50.50003,-23.6823 77.5,-31.01563 C 204.49997,-236.3177 232.00003,-240 260,-240 c 29.99997,0 59.30211,3.81772 87.96875,11.48438 28.66664,7.66665 56.03128,19.19793 82.03125,34.53124 7.33333,4 15.1823,7.1198 23.51562,9.45313 8.33333,2.33333 17.15106,3.51563 26.48438,3.51563 9.33332,0 18.15105,-1.1823 26.48438,-3.51563 8.33332,-2.33333 16.18229,-5.45313 23.51562,-9.45313 25.99997,-15.33331 53.36461,-26.86459 82.03125,-34.53124 C 640.69789,-236.18228 670.00003,-240 700,-240 c 27.99997,0 55.50003,3.6823 82.5,11.01562 26.99997,7.33333 52.83336,17.68231 77.5,31.01563 13.99999,7.33333 27.46876,6.98437 40.46875,-1.01563 12.99999,-7.99999 19.53125,-19.66668 19.53125,-35 v -150.68735 a 18.297022,18.297022 45 0 0 -18.29702,-18.29702 H 858.29702 A 18.297022,18.297022 135 0 0 840,-384.67173 v 88.65611 c -23.33331,-8 -46.53127,-13.96876 -69.53125,-17.96876 C 747.46877,-317.98437 723.99998,-320 700,-320 c -31.3333,0 -61.81774,3.46876 -91.48438,10.46875 -29.66663,6.99999 -59.18232,17.56251 -88.51562,31.5625 l 0.063,-394.0625 0.0136,-71.93735 c 0.002,-10.10516 -7.49974,-14.96883 -16.31995,-10.04426 C 495.98495,-749.67374 488.55685,-745.03344 480,-740 446.00003,-759.99998 410.51559,-775.00001 373.51562,-785 336.51566,-794.99999 298.66663,-800 260,-800 Z m 0,80 c 31.3333,0 62.30211,4.03126 92.96875,12.03125 30.66664,7.99999 59.69794,19.93752 87.03125,35.9375 v 394.0625 c -29.3333,-13.99999 -58.84899,-24.56251 -88.51562,-31.5625 C 321.81774,-316.53124 291.3333,-320 260,-320 c -23.99998,0 -47.46877,2.01563 -70.46875,6.01562 -22.99998,4 -46.19794,9.96876 -69.53125,17.96876 v -396.01563 c 21.99998,-9.33332 44.84898,-16.27084 68.51562,-20.9375 C 212.18227,-717.63541 236.00002,-720 260,-720 Z"
     sodipodi:nodetypes="sscsssscssscssscssscsscccsssccccssssccsssccss"
     inkscape:path-effect="#path-effect2"
     inkscape:original-d="m 260,-800 c -34.66663,0 -68.69795,4.03126 -102.03125,12.03125 -33.3333,7.99999 -65.270864,19.93752 -95.9375,35.9375 -7.333326,3.33333 -12.895837,8.33334 -16.5625,15 C 41.802087,-730.36459 40,-723.34895 40,-716.01562 v 482.03124 c 0,15.33332 6.531263,27.00001 19.53125,35 12.999987,8 26.468764,8.34896 40.46875,1.01563 24.66664,-13.33332 50.50003,-23.6823 77.5,-31.01563 C 204.49997,-236.3177 232.00003,-240 260,-240 c 29.99997,0 59.30211,3.81772 87.96875,11.48438 28.66664,7.66665 56.03128,19.19793 82.03125,34.53124 7.33333,4 15.1823,7.1198 23.51562,9.45313 8.33333,2.33333 17.15106,3.51563 26.48438,3.51563 9.33332,0 18.15105,-1.1823 26.48438,-3.51563 8.33332,-2.33333 16.18229,-5.45313 23.51562,-9.45313 25.99997,-15.33331 53.36461,-26.86459 82.03125,-34.53124 C 640.69789,-236.18228 670.00003,-240 700,-240 c 27.99997,0 55.50003,3.6823 82.5,11.01562 26.99997,7.33333 52.83336,17.68231 77.5,31.01563 13.99999,7.33333 27.46876,6.98437 40.46875,-1.01563 12.99999,-7.99999 19.53125,-19.66668 19.53125,-35 v -168.98437 h -80 v 106.95313 c -23.33331,-8 -46.53127,-13.96876 -69.53125,-17.96876 C 747.46877,-317.98437 723.99998,-320 700,-320 c -31.3333,0 -61.81774,3.46876 -91.48438,10.46875 -29.66663,6.99999 -59.18232,17.56251 -88.51562,31.5625 l 0.063,-394.0625 0.017,-90.23437 C 505.33015,-755.64851 494.22473,-748.36749 480,-740 446.00003,-759.99998 410.51559,-775.00001 373.51562,-785 336.51566,-794.99999 298.66663,-800 260,-800 Z m 0,80 c 31.3333,0 62.30211,4.03126 92.96875,12.03125 30.66664,7.99999 59.69794,19.93752 87.03125,35.9375 v 394.0625 c -29.3333,-13.99999 -58.84899,-24.56251 -88.51562,-31.5625 C 321.81774,-316.53124 291.3333,-320 260,-320 c -23.99998,0 -47.46877,2.01563 -70.46875,6.01562 -22.99998,4 -46.19794,9.96876 -69.53125,17.96876 v -396.01563 c 21.99998,-9.33332 44.84898,-16.27084 68.51562,-20.9375 C 212.18227,-717.63541 236.00002,-720 260,-720 Z" />
  <path
     d="m 754.24745,-582.28489 -104.715,104.715 c -6.73605,6.73605 -15.30921,10.10408 -25.71947,10.10408 -10.41026,0 -18.98343,-3.36803 -25.71948,-10.10408 -6.73605,-6.73605 -10.10408,-15.30922 -10.10408,-25.71948 0,-10.41026 3.36803,-18.98342 10.10408,-25.71947 l 104.715,-104.715 -104.715,-104.715 c -6.73605,-6.73605 -10.10408,-15.30922 -10.10408,-25.71948 0,-10.41026 3.36803,-18.98342 10.10408,-25.71947 6.73605,-6.73605 15.30922,-10.10408 25.71948,-10.10408 10.41026,0 18.98342,3.36803 25.71947,10.10408 l 104.715,104.715 104.715,-104.715 c 6.73605,-6.73605 15.30922,-10.10408 25.71948,-10.10408 10.41026,0 18.98342,3.36803 25.71947,10.10408 6.73603,6.73605 10.10409,15.30921 10.10409,25.71947 0,10.41026 -3.36806,18.98343 -10.10409,25.71948 l -104.715,104.715 104.715,104.715 c 6.73603,6.73605 10.10409,15.30921 10.10409,25.71947 0,10.41026 -3.36806,18.98343 -10.10409,25.71948 -6.73605,6.73605 -15.30921,10.10408 -25.71947,10.10408 -10.41026,0 -18.98343,-3.36803 -25.71948,-10.10408 z"
     id="path1-7"
     style="stroke-width:0.918553" />
</svg>
