<?xml version="1.0" encoding="UTF-8" standalone="no"?>
<svg
   height="24"
   viewBox="0 -960 960 960"
   width="24"
   version="1.1"
   id="svg1"
   sodipodi:docname="original_subject_1.svg"
   inkscape:version="1.3 (0e150ed, 2023-07-21)"
   xmlns:inkscape="http://www.inkscape.org/namespaces/inkscape"
   xmlns:sodipodi="http://sodipodi.sourceforge.net/DTD/sodipodi-0.dtd"
   xmlns="http://www.w3.org/2000/svg"
   xmlns:svg="http://www.w3.org/2000/svg">
  <defs
     id="defs1" />
  <sodipodi:namedview
     id="namedview1"
     pagecolor="#ffffff"
     bordercolor="#000000"
     borderopacity="0.25"
     inkscape:showpageshadow="2"
     inkscape:pageopacity="0.0"
     inkscape:pagecheckerboard="0"
     inkscape:deskcolor="#d1d1d1"
     showgrid="true"
     inkscape:zoom="13.537696"
     inkscape:cx="15.069034"
     inkscape:cy="11.597247"
     inkscape:window-width="1392"
     inkscape:window-height="943"
     inkscape:window-x="548"
     inkscape:window-y="60"
     inkscape:window-maximized="0"
     inkscape:current-layer="svg1">
    <inkscape:grid
       id="grid1"
       units="px"
       originx="0"
       originy="0"
       spacingx="4"
       spacingy="4"
       empcolor="#0099e5"
       empopacity="0.30196078"
       color="#0099e5"
       opacity="0.14901961"
       empspacing="5"
       dotted="false"
       gridanglex="30"
       gridanglez="30"
       visible="true" />
  </sodipodi:namedview>
  <path
     d="m 227.89062,-788.20312 c -6.47463,0.47026 -12.94801,0.96263 -19.375,1.71875 -8.49999,0.99999 -16.97396,2.25 -25.39062,3.75 -8.41666,1.49999 -16.82293,3.23437 -25.15625,5.23437 -8.33333,2 -16.52084,4.21875 -24.6875,6.71875 -8.16666,2.5 -16.29688,5.28125 -24.29687,8.28125 -8,3 -15.91668,6.26563 -23.750005,9.76563 -7.833326,3.49999 -15.536466,7.25 -23.203125,11.25 -1.833332,0.83333 -3.552085,1.77083 -5.15625,2.8125 -1.604165,1.04166 -3.156251,2.1875 -4.53125,3.4375 -1.374999,1.24999 -2.604168,2.60416 -3.75,4.0625 -1.145832,1.45833 -2.208334,3.02083 -3.125,4.6875 -0.916666,1.66666 -1.656251,3.36979 -2.34375,5.07812 -0.687499,1.70833 -1.260417,3.40625 -1.71875,5.15625 -0.458333,1.75 -0.864584,3.52084 -1.09375,5.3125 -0.229166,1.79166 -0.3125,3.63542 -0.3125,5.46875 v 481.95313 c 0,1.91666 0.109375,3.82291 0.3125,5.625 0.203125,1.80208 0.53125,3.54687 0.9375,5.23437 0.40625,1.6875 0.875001,3.27083 1.484375,4.84375 0.609374,1.57292 1.296876,3.07292 2.109375,4.53125 0.812499,1.45833 1.796876,2.875 2.8125,4.21875 1.015624,1.34375 2.062501,2.67708 3.28125,3.90625 1.218749,1.22917 2.562501,2.40104 3.984375,3.51563 1.421874,1.11458 2.984377,2.125 4.609375,3.125 1.624998,0.99999 3.203127,1.89583 4.84375,2.65625 1.640623,0.76041 3.343752,1.43229 5,1.95312 1.656248,0.52083 3.328127,0.89063 5,1.17188 1.671873,0.28124 3.312502,0.42708 5,0.46875 1.687498,0.0417 3.375002,-0.0365 5.078125,-0.23438 1.703123,-0.19792 3.437502,-0.5 5.15625,-0.9375 1.718748,-0.4375 3.421877,-0.96354 5.15625,-1.64062 1.734373,-0.67709 3.484377,-1.50521 5.234375,-2.42188 6.16666,-3.33333 12.43751,-6.49479 18.75,-9.45312 6.31249,-2.95834 12.6823,-5.69792 19.14062,-8.28125 6.45833,-2.58334 13.00522,-4.97917 19.60938,-7.1875 6.60416,-2.20834 13.25001,-4.26042 20,-6.09375 6.74999,-1.83334 13.50001,-3.39063 20.3125,-4.76563 6.81249,-1.375 13.67188,-2.52083 20.54687,-3.4375 6.875,-0.91667 13.76564,-1.65104 20.70313,-2.10937 6.93749,-0.45834 13.93751,-0.70313 20.9375,-0.70313 7.49999,0 14.92709,0.30208 22.34375,0.78125 7.41666,0.47917 14.85417,1.15104 22.1875,2.10938 7.33333,0.95833 14.62501,2.15625 21.875,3.59375 7.24999,1.43749 14.39584,3.16146 21.5625,5.07812 7.16666,1.91666 14.25001,4.01042 21.25,6.40625 6.99999,2.39583 13.94792,5.09375 20.78125,7.96875 6.83333,2.875 13.56772,5.94271 20.23437,9.29688 6.66666,3.35416 13.26564,6.94792 19.76563,10.78125 3.66666,1.99999 7.48959,3.80729 11.40625,5.39062 3.91666,1.58333 7.94271,2.97396 12.10937,4.14063 4.16667,1.16666 8.47397,1.99479 12.89063,2.57812 4.41666,0.58333 8.92709,0.9375 13.59375,0.9375 4.66666,0 9.17709,-0.35417 13.59375,-0.9375 4.41666,-0.58333 8.72396,-1.41146 12.89062,-2.57812 4.16667,-1.16667 8.19272,-2.5573 12.10938,-4.14063 3.91666,-1.58333 7.73959,-3.39063 11.40625,-5.39062 6.49999,-3.83333 13.09896,-7.42709 19.76562,-10.78125 6.66667,-3.35417 13.40105,-6.42188 20.23438,-9.29688 6.83333,-2.875 13.78126,-5.57292 20.78125,-7.96875 6.99999,-2.39583 14.08334,-4.48959 21.25,-6.40625 7.16666,-1.91666 14.31251,-3.64063 21.5625,-5.07812 7.24999,-1.4375 14.54167,-2.63542 21.875,-3.59375 7.33333,-0.95834 14.77084,-1.63021 22.1875,-2.10938 7.41666,-0.47917 14.84376,-0.78125 22.34375,-0.78125 6.99999,0 14.00001,0.24479 20.9375,0.70313 6.93749,0.45833 13.82813,1.1927 20.70312,2.10937 6.875,0.91667 13.73439,2.0625 20.54688,3.4375 6.81249,1.375 13.56251,2.93229 20.3125,4.76563 6.74999,1.83333 13.39584,3.88541 20,6.09375 0.55511,0.18562 1.08654,0.43672 1.64062,0.625 L 706.5625,-309.375 c -2.19256,-0.0336 -4.36153,-0.15625 -6.5625,-0.15625 -7.83333,0 -15.63022,0.26563 -23.35938,0.70313 -7.72915,0.43749 -15.42188,1.07812 -23.04687,1.95312 -7.62499,0.875 -15.13542,1.96875 -22.65625,3.28125 -7.52083,1.3125 -15.00522,2.85938 -22.42188,4.60938 -7.41665,1.74999 -14.86979,3.67187 -22.26562,5.85937 -7.39583,2.1875 -14.73438,4.64063 -22.10938,7.26563 -7.37499,2.62499 -14.75521,5.45312 -22.10937,8.51562 C 534.67709,-274.28125 527.33333,-271 520,-267.5 v -228.51562 l -80,-80 V -267.5 c -7.33333,-3.5 -14.67709,-6.78125 -22.03125,-9.84375 -7.35416,-3.0625 -14.73438,-5.89063 -22.10938,-8.51562 -7.37499,-2.625 -14.71354,-5.07813 -22.10937,-7.26563 -7.39583,-2.1875 -14.84897,-4.10938 -22.26563,-5.85937 -7.41665,-1.75 -14.90104,-3.29688 -22.42187,-4.60938 -7.52083,-1.3125 -15.03126,-2.40625 -22.65625,-3.28125 -7.62499,-0.875 -15.31772,-1.51563 -23.04688,-1.95312 -7.72915,-0.4375 -15.52604,-0.70313 -23.35937,-0.70313 -5.99999,0 -11.95313,0.14063 -17.89063,0.39063 -5.93749,0.24999 -11.85938,0.67187 -17.73437,1.17187 -5.87499,0.5 -11.68751,1.125 -17.5,1.875 -5.81249,0.75 -11.59376,1.57813 -17.34375,2.57813 -5.74999,0.99999 -11.57292,2.10937 -17.34375,3.35937 -5.77083,1.25 -11.55209,2.64063 -17.34375,4.14063 -5.79166,1.49999 -11.53126,3.17187 -17.34375,4.92187 -5.81249,1.75 -11.66667,3.625 -17.5,5.625 v -396.01562 c 5.49999,-2.33334 11.03646,-4.52084 16.64062,-6.5625 5.60417,-2.04167 11.2448,-3.95313 16.95313,-5.70313 5.70833,-1.75 11.53126,-3.38542 17.34375,-4.84375 5.81249,-1.45833 11.66146,-2.73958 17.57812,-3.90625 5.91667,-1.16667 11.79689,-2.17188 17.73438,-3.04687 5.93749,-0.875 11.9323,-1.60417 17.89062,-2.1875 5.95833,-0.58334 11.91147,-1.03646 17.89063,-1.32813 5.97916,-0.29167 11.96876,-0.46875 17.96875,-0.46875 7.83333,0 15.64584,0.28125 23.4375,0.78125 7.79166,0.5 15.53126,1.26563 23.28125,2.26563 1.14769,0.14808 2.29072,0.38782 3.4375,0.54687 z"
     style="display:inline"
     id="path15" />
  <path
     id="path14"
     style="display:inline"
     d="M 700 -789.53125 C 690.33335 -789.53125 680.73437 -789.21875 671.17188 -788.59375 C 661.60939 -787.96875 652.11456 -787.03125 642.65625 -785.78125 C 633.19794 -784.53125 623.72915 -782.96875 614.375 -781.09375 C 605.02085 -779.21875 595.73437 -777.03125 586.48438 -774.53125 C 577.23439 -772.03125 568.12498 -769.21875 559.0625 -766.09375 C 550.00002 -762.96875 540.98437 -759.53125 532.10938 -755.78125 C 523.23439 -752.03125 514.46873 -747.96875 505.78125 -743.59375 C 497.09377 -739.21875 488.49998 -734.53125 480 -729.53125 C 471.50002 -734.53125 462.90623 -739.21875 454.21875 -743.59375 C 445.53127 -747.96875 436.76562 -752.03125 427.89062 -755.78125 C 419.01564 -759.53125 409.99998 -762.96875 400.9375 -766.09375 C 391.87502 -769.21875 382.76562 -772.03125 373.51562 -774.53125 C 364.26564 -777.03125 354.97915 -779.21875 345.625 -781.09375 C 336.27085 -782.96875 326.80206 -784.53125 317.34375 -785.78125 C 316.66816 -785.87054 315.98848 -785.92953 315.3125 -786.01562 L 439.6875 -661.64062 C 439.78851 -661.58163 439.89902 -661.54348 440 -661.48438 L 440 -661.32812 L 520 -581.32812 L 520 -661.48438 C 526.83332 -665.48437 533.7396 -669.23439 540.78125 -672.73438 C 547.8229 -676.23437 555.01564 -679.5 562.26562 -682.5 C 569.51562 -685.5 576.83856 -688.28125 584.29688 -690.78125 C 591.7552 -693.28125 599.3646 -695.5 607.03125 -697.5 C 614.6979 -699.5 622.36981 -701.23439 630.07812 -702.73438 C 637.78645 -704.23437 645.53127 -705.48439 653.28125 -706.48438 C 661.03123 -707.48437 668.77085 -708.25 676.5625 -708.75 C 684.35415 -709.25 692.16668 -709.53125 700 -709.53125 C 705.99998 -709.53125 711.9896 -709.35417 717.96875 -709.0625 C 723.9479 -708.77083 729.90106 -708.31771 735.85938 -707.73438 C 741.8177 -707.15105 747.81252 -706.42187 753.75 -705.54688 C 759.68748 -704.67189 765.56772 -703.66667 771.48438 -702.5 C 777.40104 -701.33333 783.25002 -700.05208 789.0625 -698.59375 C 794.87498 -697.13542 800.69793 -695.5 806.40625 -693.75 C 812.11457 -692 817.75522 -690.08854 823.35938 -688.04688 C 828.96354 -686.00522 834.50002 -683.81771 840 -681.48438 L 840 -285.46875 C 834.16668 -287.46875 828.31248 -289.34375 822.5 -291.09375 C 816.79132 -292.8125 811.15519 -294.4583 805.46875 -295.9375 L 882.65625 -218.75 L 907.57812 -193.82812 C 908.06762 -194.27276 908.60567 -194.69551 909.0625 -195.15625 C 910.28125 -196.38542 911.32813 -197.71875 912.34375 -199.0625 C 913.35937 -200.40625 914.34375 -201.82292 915.15625 -203.28125 C 915.96875 -204.73958 916.65626 -206.23958 917.26562 -207.8125 C 917.875 -209.38542 918.34375 -210.96875 918.75 -212.65625 C 919.15625 -214.34375 919.48438 -216.08855 919.6875 -217.89062 C 919.89062 -219.69271 920 -221.59897 920 -223.51562 L 920 -705.46875 C 920 -707.30208 919.9167 -709.14584 919.6875 -710.9375 C 919.45833 -712.72916 919.05208 -714.5 918.59375 -716.25 C 918.13542 -718 917.5625 -719.69792 916.875 -721.40625 C 916.1875 -723.11458 915.44792 -724.81772 914.53125 -726.48438 C 913.61458 -728.15104 912.55208 -729.71355 911.40625 -731.17188 C 910.26042 -732.63021 909.03125 -733.98439 907.65625 -735.23438 C 906.28125 -736.48437 904.72917 -737.63022 903.125 -738.67188 C 901.52083 -739.71354 899.80208 -740.65105 897.96875 -741.48438 C 890.3021 -745.48437 882.59895 -749.23439 874.76562 -752.73438 C 866.93231 -756.23437 859.01562 -759.5 851.01562 -762.5 C 843.01564 -765.5 834.8854 -768.28125 826.71875 -770.78125 C 818.5521 -773.28125 810.36456 -775.5 802.03125 -777.5 C 793.69794 -779.5 785.29165 -781.23439 776.875 -782.73438 C 768.45835 -784.23437 759.98437 -785.48439 751.48438 -786.48438 C 742.98439 -787.48437 734.4427 -788.25 725.85938 -788.75 C 717.27606 -789.25 708.66665 -789.53125 700 -789.53125 z " />
  <path
     d="m 792,-112 c 7.33333,7.33333 16.66667,11 28,11 11.33333,0 20.66667,-3.66667 28,-11 7.33333,-7.33333 11,-16.66667 11,-28 0,-11.33333 -3.66667,-20.66667 -11,-28 L 168,-848 c -7.33333,-7.3333 -16.66667,-11 -28,-11 -11.33333,0 -20.66667,3.6667 -28,11 -7.33333,7.3333 -11,16.6667 -11,28 0,11.3333 3.66667,20.6667 11,28 z"
     id="path1-4" />
  <g
     id="path19">
    <path
       style="color:#000000;fill:#ffffff;-inkscape-stroke:none"
       d="m 171.80585,-844.06597 668.06735,668.06733 48.53147,48.53147 -48.53147,-48.53147"
       id="path26" />
  </g>
</svg>
