<?xml version="1.0" encoding="UTF-8" standalone="no"?>
<!-- Created with Inkscape (http://www.inkscape.org/) -->

<svg
   width="200mm"
   height="200mm"
   viewBox="0 0 220 220"
   version="1.1"
   id="svg8"
   inkscape:version="1.1.2 (0a00cf5339, 2022-02-04)"
   sodipodi:docname="logo.svg"
   xmlns:inkscape="http://www.inkscape.org/namespaces/inkscape"
   xmlns:sodipodi="http://sodipodi.sourceforge.net/DTD/sodipodi-0.dtd"
   xmlns="http://www.w3.org/2000/svg"
   xmlns:svg="http://www.w3.org/2000/svg"
   xmlns:rdf="http://www.w3.org/1999/02/22-rdf-syntax-ns#"
   xmlns:cc="http://creativecommons.org/ns#"
   xmlns:dc="http://purl.org/dc/elements/1.1/">
  <defs
     id="defs2">
    <filter
       style="color-interpolation-filters:sRGB;"
       inkscape:label="z-depth2"
       id="filter4346"
       y="-0.34522503"
       height="1.4783205"
       x="-0.42121304"
       width="1.5309356">
      <feFlood
         flood-opacity="0.16"
         flood-color="rgb(0,0,0)"
         result="flood"
         id="feFlood4348" />
      <feComposite
         in="flood"
         in2="SourceGraphic"
         operator="in"
         result="composite1"
         id="feComposite4350" />
      <feGaussianBlur
         in="composite"
         stdDeviation="3"
         result="blur"
         id="feGaussianBlur4352" />
      <feOffset
         dx="0"
         dy="3"
         result="offset"
         id="feOffset4354" />
      <feComposite
         in="SourceGraphic"
         in2="offset"
         operator="over"
         result="fbSourceGraphic"
         id="feComposite4356" />
      <feColorMatrix
         result="fbSourceGraphicAlpha"
         in="fbSourceGraphic"
         values="0 0 0 -1 0 0 0 0 -1 0 0 0 0 -1 0 0 0 0 1 0"
         id="feColorMatrix4358" />
      <feFlood
         id="feFlood4360"
         flood-opacity="0.23"
         flood-color="rgb(0,0,0)"
         result="flood"
         in="fbSourceGraphic" />
      <feComposite
         id="feComposite4362"
         in2="fbSourceGraphic"
         in="flood"
         operator="in"
         result="composite1" />
      <feGaussianBlur
         id="feGaussianBlur4364"
         in="composite"
         stdDeviation="3"
         result="blur" />
      <feOffset
         id="feOffset4366"
         dx="0"
         dy="2"
         result="offset" />
      <feComposite
         id="feComposite4368"
         in2="offset"
         in="fbSourceGraphic"
         operator="over"
         result="composite2" />
    </filter>
    <filter
       id="shadow-4dp"
       x="-0.19"
       y="-0.19"
       width="1.38"
       height="1.4383333">
      <feOffset
         in="SourceAlpha"
         result="offA"
         dy="4"
         id="feOffset14" />
      <feOffset
         in="SourceAlpha"
         result="offB"
         dy="1"
         id="feOffset16" />
      <feOffset
         in="SourceAlpha"
         result="offC"
         dy="2"
         id="feOffset18" />
      <feMorphology
         in="offC"
         result="spreadC"
         operator="erode"
         radius="1"
         id="feMorphology20" />
      <feGaussianBlur
         in="offA"
         result="blurA"
         stdDeviation="2.5"
         id="feGaussianBlur22" />
      <!--5px 0-->
      <feGaussianBlur
         in="offB"
         result="blurB"
         stdDeviation="5"
         id="feGaussianBlur24" />
      <!--10px 0-->
      <feGaussianBlur
         in="spreadC"
         result="blurC"
         stdDeviation="2"
         id="feGaussianBlur26" />
      <!--4px -1px-->
      <feFlood
         flood-opacity="0.14"
         result="opA"
         id="feFlood28" />
      <feFlood
         flood-opacity="0.12"
         result="opB"
         id="feFlood30" />
      <feFlood
         flood-opacity="0.40"
         result="opC"
         id="feFlood32" />
      <feComposite
         in="opA"
         in2="blurA"
         result="shA"
         operator="in"
         id="feComposite34" />
      <feComposite
         in="opB"
         in2="blurB"
         result="shB"
         operator="in"
         id="feComposite36" />
      <feComposite
         in="opC"
         in2="blurC"
         result="shC"
         operator="in"
         id="feComposite38" />
      <feMerge
         id="feMerge48">
        <feMergeNode
           in="shA"
           id="feMergeNode40" />
        <feMergeNode
           in="shB"
           id="feMergeNode42" />
        <feMergeNode
           in="shC"
           id="feMergeNode44" />
        <feMergeNode
           in="SourceGraphic"
           id="feMergeNode46" />
      </feMerge>
    </filter>
  </defs>
  <sodipodi:namedview
     id="base"
     pagecolor="#ffffff"
     bordercolor="#666666"
     borderopacity="1.0"
     inkscape:pageopacity="0.0"
     inkscape:pageshadow="2"
     inkscape:zoom="1.4541261"
     inkscape:cx="260.29379"
     inkscape:cy="417.43285"
     inkscape:document-units="mm"
     inkscape:current-layer="layer2"
     showgrid="false"
     showguides="false"
     inkscape:window-width="1920"
     inkscape:window-height="1006"
     inkscape:window-x="0"
     inkscape:window-y="0"
     inkscape:window-maximized="1"
     inkscape:pagecheckerboard="0" />
  <metadata
     id="metadata5">
    <rdf:RDF>
      <cc:Work
         rdf:about="">
        <dc:format>image/svg+xml</dc:format>
        <dc:type
           rdf:resource="http://purl.org/dc/dcmitype/StillImage" />
      </cc:Work>
    </rdf:RDF>
  </metadata>
  <g
     inkscape:groupmode="layer"
     id="masterlayer"
     style="filter:url(#filter4346)"
     inkscape:label="Master Layer">
    <g
       inkscape:groupmode="layer"
       id="layer2"
       inkscape:label="Ebene 2">
      <rect
         style="opacity:1;fill:#bfbfbf;stroke-width:0.32867604"
         id="rect3857"
         width="120"
         height="120"
         x="80"
         y="80"
         rx="12"
         ry="12" />
      <g
         aria-label="S"
         id="text55"
         style="font-weight:bold;font-size:120px;font-family:Ubuntu;text-anchor:middle;fill:#ffffff">
        <path
           d="m 139.36007,165.72 q 3.96,0 6.48,-0.6 2.64,-0.72 4.2,-1.8 1.56,-1.2 2.16,-2.76 0.6,-1.56 0.6,-3.48 0,-4.08 -3.84,-6.72 -3.84,-2.76 -13.2,-5.88 -4.08,-1.44 -8.16,-3.24 -4.08,-1.92 -7.32,-4.68 -3.24,-2.88 -5.28,-6.84 -2.04,-4.08 -2.04,-9.84 0,-5.76 2.16,-10.32 2.16,-4.68 6.12,-7.92 3.96,-3.24 9.6,-4.92 5.64,-1.8 12.72,-1.8 8.4,0 14.52,1.8 6.12,1.8 10.08,3.96 l -5.4,14.76 q -3.48,-1.8 -7.8,-3.12 -4.2,-1.44 -10.2,-1.44 -6.72,0 -9.72,1.92 -2.88,1.8 -2.88,5.64 0,2.28 1.08,3.84 1.08,1.56 3,2.88 2.04,1.2 4.56,2.28 2.64,0.96 5.76,2.04 6.48,2.4 11.28,4.8 4.8,2.28 7.92,5.4 3.24,3.12 4.8,7.32 1.56,4.2 1.56,10.2 0,11.64 -8.16,18.12 -8.16,6.36 -24.6,6.36 -5.52,0 -9.96,-0.72 -4.44,-0.6 -7.92,-1.56 -3.36,-0.96 -5.88,-2.04 -2.4,-1.08 -4.08,-2.04 l 5.28,-14.88 q 3.72,2.04 9.12,3.72 5.52,1.56 13.44,1.56 z"
           id="path2991" />
      </g>
    </g>
    <g
       inkscape:groupmode="layer"
       id="layer3"
       style="filter:url(#filter4346)"
       inkscape:label="Ebene 3">
      <rect
         style="opacity:1;fill:#ffcc00;stroke-width:0.32867604"
         id="rect58"
         width="62"
         height="62"
         x="78"
         y="78"
         rx="12"
         ry="12" />
    </g>
    <g
       inkscape:label="Ebene 1"
       inkscape:groupmode="layer"
       id="layer1">
      <rect
         style="opacity:1;fill:#ffcc00;stroke-width:0.36105308"
         id="rect3855"
         width="120"
         height="120"
         x="20"
         y="20"
         rx="12"
         ry="12" />
      <g
         aria-label="G"
         id="text62"
         style="font-weight:bold;font-size:120px;font-family:Ubuntu;text-anchor:middle;fill:#ffffff">
        <path
           d="m 85.04002,52.24 q -13.08,0 -18.96,7.32 -5.76,7.2 -5.76,19.8 0,6.12 1.44,11.16 1.44,4.92 4.32,8.52 2.88,3.6 7.2,5.64 4.32,1.92 10.08,1.92 3.12,0 5.28,-0.12 2.28,-0.12 3.96,-0.48 V 77.08 h 18.72 v 41.16 q -3.36,1.32 -10.8,2.76 -7.44,1.56 -18.36,1.56 -9.36,0 -17.04,-2.88 -7.56,-2.88 -12.96,-8.4 -5.4,-5.52 -8.4,-13.56 -2.88,-8.04 -2.88,-18.36 0,-10.44 3.24,-18.48 3.24,-8.04 8.88,-13.56 5.64,-5.64 13.2,-8.52 7.68,-2.88 16.32,-2.88 5.88,0 10.56,0.84 4.8,0.72 8.16,1.8 3.48,0.96 5.64,2.04 2.28,1.08 3.24,1.68 l -5.4,15 q -3.84,-2.04 -8.88,-3.48 -4.92,-1.56 -10.8,-1.56 z"
           id="path67" />
      </g>
    </g>
  </g>
</svg>
