<?xml version="1.0" encoding="UTF-8" standalone="no"?>
<!--
  - GSApp3 (https://github.com/libf-de/GSApp3)
  - Copyright (C) 2023 Fabian Schillig
  -
  - This program is free software: you can redistribute it and/or modify
  - it under the terms of the GNU General Public License as published by
  - the Free Software Foundation, either version 3 of the License, or
  - (at your option) any later version.
  -
  - This program is distributed in the hope that it will be useful,
  - but WITHOUT ANY WARRANTY; without even the implied warranty of
  - MERCHANTABILITY or FITNESS FOR A PARTICULAR PURPOSE.  See the
  - GNU General Public License for more details.
  -
  - You should have received a copy of the GNU General Public License
  - along with this program.  If not, see <http://www.gnu.org/licenses/>.
  -->

<!-- Created with Inkscape (http://www.inkscape.org/) -->

<svg
   width="200mm"
   height="200mm"
   viewBox="0 0 220 220"
   version="1.1"
   id="svg8"
   inkscape:version="1.1.2 (0a00cf5339, 2022-02-04)"
   sodipodi:docname="logo_mono_noshadow.svg"
   xmlns:inkscape="http://www.inkscape.org/namespaces/inkscape"
   xmlns:sodipodi="http://sodipodi.sourceforge.net/DTD/sodipodi-0.dtd"
   xmlns="http://www.w3.org/2000/svg"
   xmlns:svg="http://www.w3.org/2000/svg"
   xmlns:rdf="http://www.w3.org/1999/02/22-rdf-syntax-ns#"
   xmlns:cc="http://creativecommons.org/ns#"
   xmlns:dc="http://purl.org/dc/elements/1.1/">
  <defs
     id="defs1329" />
  <sodipodi:namedview
     id="base"
     pagecolor="#ffffff"
     bordercolor="#666666"
     borderopacity="1.0"
     inkscape:pageopacity="0.0"
     inkscape:pageshadow="2"
     inkscape:zoom="1.2361052"
     inkscape:cx="215.19204"
     inkscape:cy="404.49632"
     inkscape:document-units="mm"
     inkscape:current-layer="layer2"
     showgrid="false"
     showguides="false"
     inkscape:window-width="1920"
     inkscape:window-height="1006"
     inkscape:window-x="0"
     inkscape:window-y="0"
     inkscape:window-maximized="1"
     inkscape:pagecheckerboard="0" />
  <metadata
     id="metadata5">
    <rdf:RDF>
      <cc:Work
         rdf:about="">
        <dc:format>image/svg+xml</dc:format>
        <dc:type
           rdf:resource="http://purl.org/dc/dcmitype/StillImage" />
      </cc:Work>
    </rdf:RDF>
  </metadata>
  <g
     inkscape:groupmode="layer"
     id="masterlayer"
     style="filter:url(#filter4346)"
     inkscape:label="Master Layer">
    <g
       inkscape:groupmode="layer"
       id="layer2"
       inkscape:label="Ebene 2"
       style="display:inline">
      <path
         id="rect3857"
         style="opacity:1;fill:#fed21b;stroke-width:1.12931;fill-opacity:1"
         d="m 316.10547,274.875 c -22.84209,0 -41.23047,18.38838 -41.23047,41.23047 v 49.53125 c 3.70271,0.40563 7.53799,0.63476 11.54492,0.63476 7.14674,0 13.19483,-0.13918 18.14258,-0.41406 5.22262,-0.27487 9.75722,-0.82381 13.60547,-1.64844 V 274.875 Z m 66.38281,0 v 131.39062 c -7.69649,3.02363 -20.06519,6.18393 -37.10742,9.48243 -17.04222,3.57337 -38.07039,5.35937 -63.08398,5.35937 -2.50119,0 -4.97307,-0.0489 -7.42188,-0.13867 v 224.98633 c 0,22.84209 18.38838,41.23242 41.23047,41.23242 h 329.84961 c 22.84209,0 41.23242,-18.39033 41.23242,-41.23242 V 316.10547 c 0,-22.84209 -18.39033,-41.23047 -41.23242,-41.23047 z m 110.77539,51.26367 c 19.24123,0 35.87006,2.06243 49.88867,6.18555 14.01862,4.12312 25.5639,8.65772 34.63477,13.60547 l -18.55469,50.71484 c -7.97137,-4.12312 -16.90529,-7.69708 -26.80078,-10.7207 -9.62062,-3.2985 -21.30118,-4.94727 -35.04492,-4.94727 -15.39299,0 -26.52657,2.19966 -33.39844,6.59766 -6.59699,4.12312 -9.89453,10.58096 -9.89453,19.37695 0,5.22262 1.23706,9.62194 3.71094,13.19531 2.47387,3.57338 5.90864,6.87091 10.30664,9.89454 4.67287,2.74874 9.8956,5.36011 15.66797,7.83398 6.04724,2.199 12.64427,4.53589 19.79101,7.00977 14.84324,5.49749 27.76283,10.99469 38.75781,16.49218 10.99499,5.22262 20.06615,11.40795 27.2129,18.55469 7.42161,7.14674 12.91881,15.52978 16.49218,25.15039 3.57337,9.62062 5.35938,21.30314 5.35938,35.04688 0,26.66285 -9.34563,47.41653 -28.03711,62.25976 -18.69148,14.56836 -46.8656,21.85156 -84.52344,21.85156 -12.64424,0 -24.05229,-0.8234 -34.22265,-2.47265 -10.17037,-1.37438 -19.23958,-3.16233 -27.21094,-5.36133 -7.6965,-2.199 -14.43271,-4.53589 -20.20508,-7.00977 -5.4975,-2.47387 -10.16933,-4.80881 -14.01758,-7.00781 l 18.14063,-51.12695 c 8.52111,4.67287 18.96657,8.933 31.33593,12.78125 12.64424,3.57337 28.03796,5.35937 46.17969,5.35937 9.07087,0 16.49326,-0.68617 22.26563,-2.06054 6.04724,-1.64925 10.85631,-3.71168 14.42968,-6.18555 3.57338,-2.74875 6.04751,-5.90905 7.42188,-9.48242 1.37437,-3.57337 2.0625,-7.55904 2.0625,-11.95703 0,-9.34574 -4.39932,-17.0426 -13.19531,-23.08985 -8.796,-6.32212 -23.91329,-13.05638 -45.35352,-20.20312 -9.34574,-3.2985 -18.69137,-7.00969 -28.03711,-11.13281 -9.34574,-4.398 -17.73072,-9.75796 -25.15234,-16.08008 -7.42162,-6.597 -13.46776,-14.43109 -18.14063,-23.50196 -4.67287,-9.34574 -7.00976,-20.6146 -7.00976,-33.80859 0,-13.19399 2.47413,-25.01374 7.42187,-35.45898 4.94775,-10.72012 11.95648,-19.79128 21.02735,-27.21289 9.07086,-7.42162 20.06721,-13.05605 32.98632,-16.9043 12.91912,-4.12312 27.48747,-6.18555 43.70508,-6.18555 z"
         transform="scale(0.29104166)" />
      <g
         aria-label="S"
         id="text55"
         style="font-weight:bold;font-size:120px;font-family:Ubuntu;text-anchor:middle;fill:#ffffff" />
    </g>
    <g
       inkscape:label="Ebene 1"
       inkscape:groupmode="layer"
       id="layer1"
       style="display:inline">
      <path
         id="rect3855"
         style="opacity:1;fill:#fed21b;stroke-width:1.24055;fill-opacity:1"
         d="m 109.94922,68.71875 c -22.842092,0 -41.23047,18.388378 -41.23047,41.23047 v 329.84961 c 0,22.84209 18.388378,41.23242 41.23047,41.23242 h 329.84961 c 22.84209,0 41.23242,-18.39033 41.23242,-41.23242 V 109.94922 c 0,-22.842092 -18.39033,-41.23047 -41.23242,-41.23047 z m 173.58398,54.69922 c 13.46887,0 25.56309,0.96259 36.28321,2.88672 10.99499,1.64925 20.34061,3.71167 28.03711,6.18554 7.97136,2.199 14.43116,4.53394 19.3789,7.00782 5.22262,2.47387 8.93382,4.39906 11.13281,5.77343 l -18.55468,51.53907 c -8.79599,-4.67287 -18.96503,-8.65854 -30.50977,-11.95703 -11.26986,-3.57338 -23.64051,-5.35938 -37.10937,-5.35938 -29.96135,0 -51.67567,8.38303 -65.14453,25.15039 -13.19399,16.49249 -19.79102,39.1694 -19.79102,68.03125 0,14.01861 1.64877,26.80097 4.94726,38.3457 3.2985,11.26987 8.24676,21.0272 14.84376,29.27344 6.59699,8.24624 14.84279,14.70604 24.73828,19.37891 9.89549,4.39799 21.44077,6.59765 34.63476,6.59765 7.14674,0 13.19288,-0.13918 18.14063,-0.41406 5.22262,-0.27487 9.75917,-0.82381 13.60742,-1.64844 V 264.8418 h 64.32031 v 141.42382 c -7.69649,3.02363 -20.06519,6.18393 -37.10742,9.48243 -17.04223,3.57337 -38.07038,5.35937 -63.08398,5.35937 -21.44023,0 -40.95685,-3.29754 -58.54883,-9.89453 -17.31711,-6.59699 -32.15994,-16.21709 -44.5293,-28.86133 -12.36936,-12.64424 -21.98946,-28.17519 -28.86133,-46.59179 -6.59699,-18.41661 -9.89648,-39.44476 -9.89648,-63.08399 0,-23.9141 3.71119,-45.07949 11.13281,-63.49609 7.42162,-18.41661 17.59261,-33.94756 30.51172,-46.5918 12.91911,-12.91911 28.03641,-22.67644 45.35351,-29.27344 17.59199,-6.59699 36.28324,-9.89648 56.07422,-9.89648 z"
         transform="scale(0.29104166)" />
      <g
         aria-label="G"
         id="text62"
         style="font-weight:bold;font-size:120px;font-family:Ubuntu;text-anchor:middle;fill:#ffffff" />
    </g>
  </g>
</svg>
